<svg version="1.1" xmlns="http://www.w3.org/2000/svg" xmlns:xlink="http://www.w3.org/1999/xlink" width="80.50184" height="129.51623" viewBox="0,0,80.50184,129.51623"><defs><clipPath id="clip-1"><path d="M227.82398,234.22606l0.72307,-0.98208"/></clipPath><clipPath id="clip-2"><g clip-path="url(#clip-1)"><path d="M229.83131,234.12893c-0.08709,0.44647 -0.30061,0.85852 -0.61515,1.18713"/></g></clipPath><clipPath id="clip-3"><g clip-path="url(#clip-2)"><path d="M230.96448,235.34843c-0.13281,0.42151 -0.38376,0.79607 -0.72307,1.07921"/></g></clipPath><clipPath id="clip-4"><g clip-path="url(#clip-3)"><path d="M231.7523,237.61477l0.89574,-0.84178"/></g></clipPath><clipPath id="clip-5"><g clip-path="url(#clip-4)"><path d="M233.9323,237.45288c-0.21395,0.46257 -0.57425,0.84184 -1.02525,1.07921"/></g></clipPath><clipPath id="clip-6"><g clip-path="url(#clip-5)"><path d="M235.37843,238.07882c-0.35897,0.50808 -0.75198,0.99124 -1.17634,1.44614"/></g></clipPath><clipPath id="clip-7"><g clip-path="url(#clip-6)"><path d="M236.33893,239.00694c-0.11069,0.24987 -0.27676,0.4713 -0.48564,0.64752"/></g></clipPath><clipPath id="clip-8"><g clip-path="url(#clip-7)"><path d="M233.55457,231.78705"/></g></clipPath><clipPath id="clip-9"><g clip-path="url(#clip-8)" fill="none" stroke="none" stroke-width="1"><path d="M232.36745,231.3014"/></g></clipPath><clipPath id="clip-10"><path d="M257.01653,234.42031c1.78069,-0.80941 4.74851,-0.18347 7.23069,1.2303c1.28636,0.63134 2.33475,1.66079 2.9894,2.93544c0.2259,0.65652 0.1384,1.38037 -0.23743,1.96416c-0.20818,0.40091 -0.5264,0.73412 -0.91733,0.96049c-0.98208,0.5396 -2.63327,0.30218 -4.15495,-0.31297c-1.52408,-0.67446 -2.97736,-1.49871 -4.33841,-2.46059l-7.26306,-4.7593c-0.28389,-0.15759 -0.53631,-0.36612 -0.74465,-0.61515c-0.18154,-0.30993 -0.18154,-0.69374 0,-1.00366c0.21584,-0.58277 0.64752,-1.24109 1.55406,-0.97129c0.3097,0.1081 0.60367,0.25691 0.87416,0.44247c1.8994,1.20871 4.00386,2.67643 5.87089,2.68723"/></clipPath><clipPath id="clip-11"><g clip-path="url(#clip-10)"><path d="M259.74693,238.73714c0.14796,-1.54939 1.24667,-2.84198 2.75198,-3.23762"/></g></clipPath><clipPath id="clip-12"><g clip-path="url(#clip-11)"><path d="M260.42683,238.01407c1.61836,0.79067 3.10384,1.82833 4.40316,3.07574"/></g></clipPath><clipPath id="clip-13"><g clip-path="url(#clip-12)"><path d="M261.05277,237.07516c1.86612,0.8196 3.60082,1.91061 5.14782,3.23762"/></g></clipPath><clipPath id="clip-14"><g clip-path="url(#clip-13)"><path d="M261.71108,235.95279c1.86057,0.82385 3.59112,1.91451 5.13703,3.23762"/></g></clipPath><clipPath id="clip-15"><g clip-path="url(#clip-14)"><path d="M266.56752,241.12219l-1.34901,2.15841c-0.10083,0.19226 -0.2449,0.35851 -0.42089,0.48564c-0.21581,0.12418 -0.46398,0.18059 -0.71228,0.16188c-2.0397,0 -3.91752,-1.07921 -5.68742,-2.08287l-9.9287,-5.83851c-0.18065,-0.08599 -0.33385,-0.2205 -0.44247,-0.38851c-0.05369,-0.17954 -0.05369,-0.37086 0,-0.5504c0.09655,-0.85161 0.47665,-1.64604 1.07921,-2.25554"/></g></clipPath><clipPath id="clip-16"><g clip-path="url(#clip-15)"><path d="M249.55921,236.14704c0.0023,-0.50012 0.16917,-0.98556 0.47485,-1.38138"/></g></clipPath><clipPath id="clip-17"><g clip-path="url(#clip-16)"><path d="M251.2104,237.0212c-0.0267,-0.48737 0.17713,-0.95896 0.5504,-1.27346"/></g></clipPath><clipPath id="clip-18"><g clip-path="url(#clip-17)"><path d="M253.17456,237.87377c-0.14238,-0.438 0.04242,-0.91577 0.44247,-1.14396"/></g></clipPath><clipPath id="clip-19"><g clip-path="url(#clip-18)"><path d="M255.13871,238.00328l-0.52881,1.07921"/></g></clipPath><clipPath id="clip-20"><g clip-path="url(#clip-19)"><path d="M256.56327,238.64001c-0.00272,0.45662 -0.13766,0.90269 -0.38851,1.28426"/></g></clipPath><clipPath id="clip-21"><g clip-path="url(#clip-20)"><path d="M257.90148,239.64367c-0.05613,0.43372 -0.23597,0.84211 -0.51802,1.17634"/></g></clipPath><clipPath id="clip-22"><g clip-path="url(#clip-21)"><path d="M259.08861,241.72654l0.72307,-0.99287"/></g></clipPath><clipPath id="clip-23"><g clip-path="url(#clip-22)"><path d="M261.20386,241.16536c-0.13035,0.48632 -0.41893,0.91539 -0.8202,1.2195"/></g></clipPath><clipPath id="clip-24"><g clip-path="url(#clip-23)"><path d="M262.73633,241.5107c-0.25634,0.56678 -0.55205,1.11492 -0.88495,1.64039"/></g></clipPath><clipPath id="clip-25"><g clip-path="url(#clip-24)"><path d="M263.85871,242.24456c-0.06462,0.26945 -0.19015,0.52049 -0.36693,0.73386"/></g></clipPath><clipPath id="clip-26"><g clip-path="url(#clip-25)"><path d="M259.80089,235.6614"/></g></clipPath><clipPath id="clip-27"><g clip-path="url(#clip-26)" fill="none" stroke="none" stroke-width="1"><path d="M258.54901,235.40239"/></g></clipPath><clipPath id="clip-28"><path d="M239.70605,195.35302l19.69553,2.43901c1.06405,3.27316 1.68473,6.67415 1.84544,10.11217c0.09713,2.53614 0,7.23069 0,7.23069c0.88949,0.94493 1.56332,2.07166 1.97495,3.30237c0.37772,1.31663 0,1.67277 0.48564,2.64406c0.48564,0.97129 1.07921,0.91733 1.69436,1.66198c1.24109,1.41376 0.62594,2.91386 1.20871,4.53267c0.4101,1.15475 1.51089,2.5901 4.58663,3.72326l-10.56544,2.60089l-6.10831,0.60436c-3.35412,-2.60496 -5.87162,-6.13546 -7.24148,-10.15534c-0.47298,-1.43156 -0.78075,-2.91249 -0.91733,-4.41396c-3.05773,0.74717 -6.28727,-0.06021 -8.63366,-2.15841" fill="none" stroke="none" stroke-width="1"/></clipPath></defs><g transform="translate(-199.87044,-114.86368)"><g data-paper-data="{&quot;isPaintingLayer&quot;:true}" fill-rule="nonzero" stroke-miterlimit="10" stroke-dasharray="" stroke-dashoffset="0" style="mix-blend-mode: normal"><path d="M239.68447,223.08864c0,0.64752 -0.22663,1.51089 -3.31317,4.86722c-1.29505,1.40297 -2.41742,2.51455 -3.23762,3.23762c0.762,0.51485 1.56722,0.9626 2.40663,1.33822c0.82798,0.38657 1.4603,1.09696 1.74832,1.96416c0.18347,1.01445 -0.73386,1.6296 -1.61881,1.95336c-0.62966,0.29543 -1.34961,0.33413 -2.00733,0.10792c-0.39771,-0.20171 -0.76177,-0.46383 -1.07921,-0.77703l-7.84584,-6.71267c-0.29943,-0.20506 -0.52614,-0.49977 -0.64752,-0.84178c-0.09713,-0.50723 0.44247,-0.75544 0.89574,-0.92812c2.00077,-0.73876 3.57807,-2.31605 4.31683,-4.31683c0.46406,-1.2303 0.61515,-2.62247 1.13317,-3.82039c0.58616,-1.18426 1.69199,-2.0266 2.9894,-2.27713c1.65119,-0.18347 2.95703,1.14396 3.98227,2.15841c1.02525,1.01445 2.29871,2.42822 2.27713,4.04703z" fill="#e4bdd0" stroke="#0a0000" stroke-width="2.4" stroke-linecap="round" stroke-linejoin="round"/><path d="M258.66772,202.69163c1.3598,7.82425 -4.31683,10.79207 -14.53692,10.64098c-10.22009,-0.15109 -13.17712,-4.52188 -10.84603,-12.22742c2.33109,-7.70554 7.17673,-11.87128 13.71672,-11.79573c6.53999,0.07554 10.32801,5.54712 11.66623,13.38217z" fill="#e4bdd0" stroke="#0a0000" stroke-width="1.91" stroke-linecap="butt" stroke-linejoin="miter"/><path d="M244.86466,217.27171c0.10843,2.40081 -0.65856,4.75932 -2.15841,6.63712c-1.16554,1.34901 -2.96782,1.44614 -4.69455,3.47505c-0.61291,0.72028 -1.12152,1.52315 -1.51089,2.38505c-1.68356,-1.14396 -3.41029,-2.38505 -5.18019,-3.72326c-1.43894,-1.06482 -2.78795,-2.14403 -4.04703,-3.23762c2.73039,-2.15841 3.11891,-3.83118 3.23762,-4.45713c0.1295,-0.93891 0.18347,-4.18732 0.18347,-4.31683c0.00546,-0.06463 0.00546,-0.12962 0,-0.19426c-0.03801,-2.67246 0.32578,-5.33546 1.07921,-7.8998c0.89636,-2.27675 2.31167,-4.31289 4.13336,-5.94643l2.25554,-1.18713l5.7198,1.07921" fill="#384998" stroke="#0c0607" stroke-width="1.82" stroke-linecap="square" stroke-linejoin="round"/><path d="M262.2399,195.34223c1.79148,0.77703 2.80594,2.69802 3.84198,4.38158c1.03604,1.68356 2.53614,3.45346 4.46792,3.45346c0.83438,-0.13933 1.67947,-0.20433 2.52534,-0.19426c0.75274,0.22517 1.37846,0.75228 1.7282,1.45584c0.34974,0.70356 0.39218,1.52061 0.11725,2.25663c-0.65307,1.42954 -2.06569,2.36011 -3.63693,2.39584c-2.087,-0.0185 -4.11358,-0.70284 -5.78455,-1.95336c-3.09342,-2.02447 -5.70528,-4.70264 -7.65158,-7.84584c-0.90653,-1.45693 -1.6296,-3.46425 -0.5396,-4.72693c0.86467,-0.84471 2.18184,-1.02033 3.23762,-0.43168c1.05333,0.59119 1.92336,1.46122 2.51455,2.51455" fill="#e4bdd0" stroke="#0a0000" stroke-width="2.4" stroke-linecap="butt" stroke-linejoin="miter"/><path d="M251.6205,192.19094c1.88559,-0.56618 3.7285,-1.26583 5.51475,-2.09366c1.09,4.96435 1.92099,6.73425 3.47505,12.13029c-1.91238,0.26284 -3.80008,0.68153 -5.64425,1.25188c-1.04683,-4.67297 -1.85624,-6.20544 -3.34554,-11.28851z" fill="#384998" stroke="#0c0607" stroke-width="0.8" stroke-linecap="butt" stroke-linejoin="miter"/><path d="M256.50931,191.54342c-0.2698,0.1295 -0.31297,-0.11871 0,-0.23743c0.31297,-0.11871 0.30218,0.11871 0,0.23743z" fill="#ffffff" stroke="none" stroke-width="1" stroke-linecap="butt" stroke-linejoin="miter"/><path d="M256.70356,192.76292c-0.11871,-0.50723 -0.17267,-0.77703 -0.2698,-1.33822" fill="none" stroke="#ffffff" stroke-width="0.4" stroke-linecap="butt" stroke-linejoin="miter"/><path d="M257.22158,194.6947c-0.15109,-0.46406 -0.21584,-0.69069 -0.33455,-1.16554" fill="none" stroke="#ffffff" stroke-width="0.4" stroke-linecap="butt" stroke-linejoin="miter"/><path d="M257.51297,195.56886c0.1403,0.4101 0.21584,0.62594 0.36693,1.07921" fill="none" stroke="#ffffff" stroke-width="0.4" stroke-linecap="butt" stroke-linejoin="miter"/><path d="M258.20366,197.46826c0.18347,0.51802 0.29139,0.80941 0.49644,1.41376" fill="none" stroke="#ffffff" stroke-width="0.4" stroke-linecap="butt" stroke-linejoin="miter"/><path d="M258.95911,199.64826c0.16188,0.48564 0.23743,0.74465 0.39931,1.28426" fill="none" stroke="#ffffff" stroke-width="0.4" stroke-linecap="butt" stroke-linejoin="miter"/><path d="M253.20693,194.5652c-0.18347,-0.56119 -0.28059,-0.86337 -0.46406,-1.48931" fill="none" stroke="#ffffff" stroke-width="0.4" stroke-linecap="butt" stroke-linejoin="miter"/><path d="M253.94079,196.62648c-0.16188,-0.44247 -0.25901,-0.69069 -0.44247,-1.20871" fill="none" stroke="#ffffff" stroke-width="0.4" stroke-linecap="butt" stroke-linejoin="miter"/><path d="M254.23218,197.43589c0.15109,0.39931 0.22663,0.59356 0.36693,0.98208" fill="none" stroke="#ffffff" stroke-width="0.4" stroke-linecap="butt" stroke-linejoin="miter"/><path d="M254.80416,199.01153c0.10804,0.27554 0.2017,0.55651 0.28059,0.84178" fill="none" stroke="#ffffff" stroke-width="0.4" stroke-linecap="butt" stroke-linejoin="miter"/><path d="M255.35455,200.87856c0.06475,0.28059 0.09713,0.42089 0.16188,0.72307" fill="none" stroke="#ffffff" stroke-width="0.4" stroke-linecap="butt" stroke-linejoin="miter"/><path d="M258.39792,178.89511c-0.37896,0.3773 -0.99163,0.3773 -1.37059,0c-0.3715,-0.38134 -0.3715,-0.98926 0,-1.37059c0.98744,-0.99128 2.07211,-1.88071 3.23762,-2.65485c0.33926,-0.18935 0.75826,-0.16088 1.06879,0.07261c0.31054,0.23349 0.45424,0.6281 0.36655,1.0066c-0.07788,0.2415 -0.23836,0.44784 -0.45327,0.58277c-0.37772,0.23743 -0.73386,0.49644 -1.07921,0.75544l0.19426,-0.15109c-0.68015,0.54163 -1.32873,1.12176 -1.94257,1.73752z" fill="#363636" stroke="none" stroke-width="1" stroke-linecap="butt" stroke-linejoin="miter"/><path d="M256.57406,180.87006c-0.53643,0 -0.97129,-0.43486 -0.97129,-0.97129c0,-0.53643 0.43486,-0.97129 0.97129,-0.97129c0.94174,0.05396 1.88578,0.05396 2.82752,0c0.5396,-0.02158 1.07921,-0.11871 1.61881,-0.11871h0.35614c0.17267,0 -0.17267,0 0,0h0.17267c0.17557,-0.02036 0.34893,-0.05649 0.51802,-0.10792c0.51635,-0.12636 1.04167,0.17179 1.19792,0.6799c0.08666,0.25756 0.06272,0.53952 -0.06611,0.77879c-0.12884,0.23927 -0.35106,0.41446 -0.61379,0.48388c-1.00707,0.22145 -2.03393,0.34077 -3.06495,0.35614c-0.96694,0.05396 -1.93613,0.05396 -2.90307,0z" fill="#363636" stroke="none" stroke-width="1" stroke-linecap="butt" stroke-linejoin="miter"/><path d="M258.44109,183.15798c-0.14339,-0.08758 -0.26221,-0.21012 -0.34535,-0.35614l-0.09713,-0.22663c-0.07057,-0.25463 -0.03555,-0.52694 0.09713,-0.75544c0.13165,-0.21557 0.33976,-0.37357 0.58277,-0.44247c0.25102,-0.0713 0.52032,-0.03618 0.74465,0.09713c0.61153,0.42714 1.26626,0.78886 1.95336,1.07921c0.2186,0.12826 0.37766,0.33774 0.44247,0.58277c0.07057,0.25463 0.03555,0.52694 -0.09713,0.75544c-0.13165,0.21557 -0.33976,0.37357 -0.58277,0.44247c-0.12675,0.03779 -0.26176,0.03779 -0.38851,0c-0.12635,-0.00271 -0.24953,-0.04004 -0.35614,-0.10792c-0.68306,-0.29862 -1.33699,-0.6599 -1.95336,-1.07921z" fill="#363636" stroke="none" stroke-width="1" stroke-linecap="butt" stroke-linejoin="miter"/><path d="M231.04002,230.02794c1.9102,-0.47485 4.71613,0.6799 6.89613,2.52534c1.1405,0.86049 1.97616,2.06294 2.38505,3.43188c0.10209,0.68724 -0.11667,1.38334 -0.59356,1.88861c-0.27665,0.35831 -0.65166,0.6283 -1.07921,0.77703c-1.07921,0.34535 -2.64406,-0.18347 -4.02544,-1.07921c-1.38006,-0.95107 -2.66329,-2.03549 -3.83118,-3.23762l-6.28098,-6.00039c-0.24921,-0.20817 -0.45777,-0.46063 -0.61515,-0.74465c-0.14639,-0.32906 -0.09639,-0.71237 0.1295,-0.99287c0.32376,-0.5396 0.86337,-1.07921 1.70515,-0.6799c0.2867,0.16307 0.54841,0.36661 0.77703,0.60436c1.64039,1.52168 3.45346,3.34554 5.28811,3.70168" fill="#ffffff" stroke="none" stroke-width="1" stroke-linecap="butt" stroke-linejoin="miter"/><path d="M232.91784,234.83041c0.40439,-1.53271 1.74229,-2.63605 3.32396,-2.74119" fill="#ffffff" stroke="none" stroke-width="1" stroke-linecap="butt" stroke-linejoin="miter"/><path d="M233.73804,234.21526c1.44953,1.06994 2.72383,2.3588 3.77722,3.82039" fill="#ffffff" stroke="none" stroke-width="1" stroke-linecap="butt" stroke-linejoin="miter"/><path d="M234.52586,233.40586c1.68297,1.13524 3.1917,2.50945 4.47871,4.0794" fill="#ffffff" stroke="none" stroke-width="1" stroke-linecap="butt" stroke-linejoin="miter"/><path d="M235.37843,232.42378c1.68071,1.1381 3.18906,2.51196 4.47871,4.0794" fill="#ffffff" stroke="none" stroke-width="1" stroke-linecap="butt" stroke-linejoin="miter"/><path d="M239.24199,238.381l-1.70515,1.83465c-0.13449,0.1676 -0.3039,0.30386 -0.49644,0.39931c-0.23959,0.07015 -0.49427,0.07015 -0.73386,0c-2.01812,-0.34535 -3.6693,-1.74832 -5.21257,-3.08653l-8.69841,-7.55445c-0.16314,-0.11749 -0.29023,-0.27821 -0.36693,-0.46406c-0.05306,-0.17962 -0.05306,-0.37077 0,-0.5504c0.26257,-0.81737 0.78568,-1.52623 1.48931,-2.01812" fill="#ffffff" stroke="none" stroke-width="1" stroke-linecap="butt" stroke-linejoin="miter"/><path d="M223.39923,230.41645c0.09721,-0.49696 0.35506,-0.9482 0.73386,-1.28426" fill="#ffffff" stroke="none" stroke-width="1" stroke-linecap="butt" stroke-linejoin="miter"/><path d="M224.85616,231.56041c0.06415,-0.48525 0.35167,-0.91255 0.77703,-1.15475" fill="#ffffff" stroke="none" stroke-width="1" stroke-linecap="butt" stroke-linejoin="miter"/><path d="M226.63686,232.79071c-0.08273,-0.47074 0.19323,-0.93069 0.64752,-1.07921" fill="#ffffff" stroke="none" stroke-width="1" stroke-linecap="butt" stroke-linejoin="miter"/><path d="M227.82398,234.22606l0.72307,-0.98208" fill="#ffffff" stroke="none" stroke-width="1" stroke-linecap="butt" stroke-linejoin="miter"/><path d="M229.83131,234.12893c-0.08709,0.44647 -0.30061,0.85852 -0.61515,1.18713" fill="#ffffff" stroke="none" stroke-width="1" stroke-linecap="butt" stroke-linejoin="miter"/><path d="M230.96448,235.34843c-0.13281,0.42151 -0.38376,0.79607 -0.72307,1.07921" fill="#ffffff" stroke="none" stroke-width="1" stroke-linecap="butt" stroke-linejoin="miter"/><path d="M231.7523,237.61477l0.89574,-0.84178" fill="#ffffff" stroke="none" stroke-width="1" stroke-linecap="butt" stroke-linejoin="miter"/><path d="M233.9323,237.45288c-0.21395,0.46257 -0.57425,0.84184 -1.02525,1.07921" fill="#ffffff" stroke="none" stroke-width="1" stroke-linecap="butt" stroke-linejoin="miter"/><path d="M235.37843,238.07882c-0.35897,0.50808 -0.75198,0.99124 -1.17634,1.44614" fill="#ffffff" stroke="none" stroke-width="1" stroke-linecap="butt" stroke-linejoin="miter"/><path d="M236.33893,239.00694c-0.11069,0.24987 -0.27676,0.4713 -0.48564,0.64752" fill="#ffffff" stroke="none" stroke-width="1" stroke-linecap="butt" stroke-linejoin="miter"/><path d="M233.55457,231.78705" fill="#ffffff" stroke="none" stroke-width="1" stroke-linecap="butt" stroke-linejoin="miter"/><path d="M232.36745,231.3014" fill="#ffffff" stroke="none" stroke-width="1" stroke-linecap="butt" stroke-linejoin="miter"/><g clip-path="url(#clip-9)" stroke-linecap="butt" stroke-linejoin="miter"><path d="M245.75066,232.83713l-6.45645,11.52411l-22.09728,-12.38013l6.45645,-11.52411z" fill="#ffffff" stroke="#0a0000" stroke-width="0.4"/></g><path d="M231.04002,230.02794c1.9102,-0.47485 4.71613,0.6799 6.89613,2.52534c1.1405,0.86049 1.97616,2.06294 2.38505,3.43188c0.10209,0.68724 -0.11667,1.38334 -0.59356,1.88861c-0.27665,0.35831 -0.65166,0.6283 -1.07921,0.77703c-1.07921,0.34535 -2.64406,-0.18347 -4.02544,-1.07921c-1.38006,-0.95107 -2.66329,-2.03549 -3.83118,-3.23762l-6.28098,-6.00039c-0.24921,-0.20817 -0.45777,-0.46063 -0.61515,-0.74465c-0.14639,-0.32906 -0.09639,-0.71237 0.1295,-0.99287c0.32376,-0.5396 0.86337,-1.07921 1.70515,-0.6799c0.2867,0.16307 0.54841,0.36661 0.77703,0.60436c1.64039,1.52168 3.45346,3.34554 5.28811,3.70168" fill="none" stroke="#0a0000" stroke-width="0.4" stroke-linecap="butt" stroke-linejoin="miter"/><path d="M232.91784,234.83041c0.40439,-1.53271 1.74229,-2.63605 3.32396,-2.74119" fill="none" stroke="#0a0000" stroke-width="0.4" stroke-linecap="butt" stroke-linejoin="miter"/><path d="M233.73804,234.21526c1.44953,1.06994 2.72383,2.3588 3.77722,3.82039" fill="none" stroke="#0a0000" stroke-width="0.4" stroke-linecap="butt" stroke-linejoin="miter"/><path d="M234.52586,233.40586c1.68297,1.13524 3.1917,2.50945 4.47871,4.0794" fill="none" stroke="#0a0000" stroke-width="0.4" stroke-linecap="butt" stroke-linejoin="miter"/><path d="M235.37843,232.42378c1.68071,1.1381 3.18906,2.51196 4.47871,4.0794" fill="none" stroke="#0a0000" stroke-width="0.4" stroke-linecap="butt" stroke-linejoin="miter"/><path d="M239.24199,238.381l-1.70515,1.83465c-0.13449,0.1676 -0.3039,0.30386 -0.49644,0.39931c-0.23959,0.07015 -0.49427,0.07015 -0.73386,0c-2.01812,-0.34535 -3.6693,-1.74832 -5.21257,-3.08653l-8.69841,-7.55445c-0.16314,-0.11749 -0.29023,-0.27821 -0.36693,-0.46406c-0.05306,-0.17962 -0.05306,-0.37077 0,-0.5504c0.26257,-0.81737 0.78568,-1.52623 1.48931,-2.01812" fill="none" stroke="#0a0000" stroke-width="0.4" stroke-linecap="butt" stroke-linejoin="miter"/><path d="M223.39923,230.41645c0.09721,-0.49696 0.35506,-0.9482 0.73386,-1.28426" fill="none" stroke="#0a0000" stroke-width="0.4" stroke-linecap="butt" stroke-linejoin="miter"/><path d="M224.85616,231.56041c0.06415,-0.48525 0.35167,-0.91255 0.77703,-1.15475" fill="none" stroke="#0a0000" stroke-width="0.4" stroke-linecap="butt" stroke-linejoin="miter"/><path d="M226.63686,232.79071c-0.08273,-0.47074 0.19323,-0.93069 0.64752,-1.07921" fill="none" stroke="#0a0000" stroke-width="0.4" stroke-linecap="butt" stroke-linejoin="miter"/><path d="M227.82398,234.22606l0.72307,-0.98208" fill="none" stroke="#0a0000" stroke-width="0.4" stroke-linecap="butt" stroke-linejoin="miter"/><path d="M229.83131,234.12893c-0.08709,0.44647 -0.30061,0.85852 -0.61515,1.18713" fill="none" stroke="#0a0000" stroke-width="0.4" stroke-linecap="butt" stroke-linejoin="miter"/><path d="M230.96448,235.34843c-0.13281,0.42151 -0.38376,0.79607 -0.72307,1.07921" fill="none" stroke="#0a0000" stroke-width="0.4" stroke-linecap="butt" stroke-linejoin="miter"/><path d="M231.7523,237.61477l0.89574,-0.84178" fill="none" stroke="#0a0000" stroke-width="0.4" stroke-linecap="butt" stroke-linejoin="miter"/><path d="M233.9323,237.45288c-0.21395,0.46257 -0.57425,0.84184 -1.02525,1.07921" fill="none" stroke="#0a0000" stroke-width="0.4" stroke-linecap="butt" stroke-linejoin="miter"/><path d="M235.37843,238.07882c-0.35897,0.50808 -0.75198,0.99124 -1.17634,1.44614" fill="none" stroke="#0a0000" stroke-width="0.4" stroke-linecap="butt" stroke-linejoin="miter"/><path d="M236.33893,239.00694c-0.11069,0.24987 -0.27676,0.4713 -0.48564,0.64752" fill="none" stroke="#0a0000" stroke-width="0.4" stroke-linecap="butt" stroke-linejoin="miter"/><path d="M233.55457,231.78705" fill="none" stroke="#0a0000" stroke-width="0.4" stroke-linecap="butt" stroke-linejoin="miter"/><path d="M232.36745,231.3014" fill="none" stroke="#0a0000" stroke-width="0.4" stroke-linecap="butt" stroke-linejoin="miter"/><path d="M231.04002,230.02794c1.9102,-0.47485 4.71613,0.6799 6.89613,2.52534c1.1405,0.86049 1.97616,2.06294 2.38505,3.43188c0.10209,0.68724 -0.11667,1.38334 -0.59356,1.88861c-0.27665,0.35831 -0.65166,0.6283 -1.07921,0.77703c-1.07921,0.34535 -2.64406,-0.18347 -4.02544,-1.07921c-1.38006,-0.95107 -2.66329,-2.03549 -3.83118,-3.23762l-6.28098,-6.00039c-0.24921,-0.20817 -0.45777,-0.46063 -0.61515,-0.74465c-0.14639,-0.32906 -0.09639,-0.71237 0.1295,-0.99287c0.32376,-0.5396 0.86337,-1.07921 1.70515,-0.6799c0.2867,0.16307 0.54841,0.36661 0.77703,0.60436c1.64039,1.52168 3.45346,3.34554 5.28811,3.70168" fill="#ffffff" stroke="#0c0607" stroke-width="1.6" stroke-linecap="butt" stroke-linejoin="miter"/><path d="M236.2418,231.56041c0.35287,0.01121 0.63631,0.29466 0.64752,0.64752c-0.01121,0.35287 -0.29466,0.63631 -0.64752,0.64752h-0.16188c-0.05396,0 -0.20505,0 -0.28059,0c-0.17274,0.02238 -0.34052,0.07345 -0.49644,0.15109c0.1403,-0.09713 0,0 0,0l-0.1295,0.06475c-0.08623,0.0403 -0.16922,0.0872 -0.24822,0.1403l-0.22663,0.1403c-0.0335,0.01921 -0.06285,0.0449 -0.08634,0.07554c0.1295,-0.11871 0,0 0,0c-0.141,0.12113 -0.27436,0.25088 -0.39931,0.38851l-0.08634,0.10792c0,0.06475 0.06475,-0.07554 0,0c-0.06475,0.07554 -0.07554,0.08634 -0.17267,0.23743c-0.09713,0.15109 -0.25901,0.39931 -0.25901,0.47485c0,0.07554 0.05396,-0.04317 0,0c-0.05396,0.04317 -0.05396,0.08634 -0.05396,0.1403c-0.03157,0.08802 -0.05682,0.17819 -0.07554,0.2698c-0.10417,0.33874 -0.45438,0.53751 -0.79861,0.45327c-0.17351,-0.04291 -0.32211,-0.15453 -0.41167,-0.30923c-0.08955,-0.15468 -0.11237,-0.33914 -0.06318,-0.51097c0.46854,-1.82585 2.0676,-3.13655 3.9499,-3.23762z" fill="#0c0607" stroke="none" stroke-width="1" stroke-linecap="butt" stroke-linejoin="miter"/><path d="M233.45744,234.05338c0.0429,-0.07445 0.11364,-0.1288 0.19663,-0.15107c0.08299,-0.02226 0.17143,-0.01063 0.24584,0.03235c1.49437,1.10387 2.8086,2.43267 3.89594,3.93911c0.0894,0.15496 0.03625,0.35307 -0.11871,0.44247c-0.15496,0.0894 -0.35307,0.03625 -0.44247,-0.11871c-1.02225,-1.41439 -2.25621,-2.66291 -3.65851,-3.70168c-0.15018,-0.09302 -0.20217,-0.28678 -0.11871,-0.44247z" fill="#0c0607" stroke="none" stroke-width="1" stroke-linecap="butt" stroke-linejoin="miter"/><path d="M234.69853,233.12526c1.69896,1.15623 3.2251,2.54792 4.53267,4.13336c0.2698,0.32376 -0.19426,0.77703 -0.45327,0.45327c-1.27069,-1.54653 -2.75723,-2.90221 -4.41396,-4.02544c-0.34535,-0.23743 -0.01079,-0.79861 0.33455,-0.56119z" fill="#0c0607" stroke="none" stroke-width="1" stroke-linecap="butt" stroke-linejoin="miter"/><path d="M235.54031,232.14319c1.70452,1.15321 3.23462,2.5452 4.54346,4.13336c0.25901,0.32376 -0.19426,0.78782 -0.46406,0.46406c-1.26374,-1.55228 -2.74707,-2.91199 -4.40316,-4.03623c-0.34535,-0.23743 -0.02158,-0.79861 0.32376,-0.56119z" fill="#0c0607" stroke="none" stroke-width="1" stroke-linecap="butt" stroke-linejoin="miter"/><path d="M238.87506,238.04645c0.42089,-0.45327 1.11158,0.23743 0.6799,0.69069l-1.30584,1.39218c-0.28612,0.37207 -0.65583,0.67154 -1.07921,0.87416c-0.92867,0.14189 -1.87785,-0.04107 -2.68723,-0.51802c-2.09366,-0.98208 -3.8096,-2.73039 -5.52554,-4.2197l-6.27019,-5.39604c-0.77703,-0.64752 -1.42455,-1.07921 -1.07921,-2.15841c0.32409,-0.87648 0.91236,-1.63068 1.68356,-2.15841c0.48564,-0.36693 1.13317,0.36693 0.48564,0.84178c-0.64752,0.47485 -1.75911,1.67277 -0.9497,2.38505l2.3095,1.99653l4.60821,4.00386c1.37333,1.32894 2.86931,2.52499 4.46792,3.57218c0.63673,0.37772 2.06129,1.16554 2.79515,0.66911c0.68985,-0.59503 1.3156,-1.26057 1.86703,-1.98574z" fill="#0a0000" stroke="none" stroke-width="1" stroke-linecap="butt" stroke-linejoin="miter"/><path d="M223.82013,228.84081c0.18884,-0.18509 0.49106,-0.18509 0.6799,0c0.09227,0.09123 0.14419,0.21559 0.14419,0.34535c0,0.12975 -0.05192,0.25412 -0.14419,0.34535c-0.10165,0.09288 -0.1955,0.19394 -0.28059,0.30218l0.07554,-0.09713c-0.11725,0.1625 -0.21844,0.33598 -0.30218,0.51802l0.05396,-0.11871c-0.06299,0.14931 -0.11001,0.30487 -0.1403,0.46406c-0.03227,0.12148 -0.11467,0.22349 -0.22663,0.28059c-0.12021,0.05356 -0.25751,0.05356 -0.37772,0c-0.24759,-0.08235 -0.3923,-0.33911 -0.33455,-0.59356c0.11958,-0.57717 0.41788,-1.10202 0.85257,-1.5001z" fill="#0a0000" stroke="none" stroke-width="1" stroke-linecap="butt" stroke-linejoin="miter"/><path d="M225.46052,229.98477c0.22982,-0.13154 0.52265,-0.05474 0.65832,0.17267c0.04754,0.12142 0.04754,0.2563 0,0.37772c-0.03626,0.12214 -0.11717,0.22617 -0.22663,0.29139l-0.18347,0.11871l0.09713,-0.07554c-0.104,0.08244 -0.19815,0.17659 -0.28059,0.28059l0.07554,-0.09713c-0.08242,0.10616 -0.1513,0.22217 -0.20505,0.34535l0.05396,-0.10792c-0.05226,0.12068 -0.08854,0.24766 -0.10792,0.37772v-0.10792c0.00054,0.08698 -0.0218,0.17258 -0.06475,0.24822l-0.07554,0.09713c-0.08967,0.09413 -0.21544,0.14522 -0.34535,0.1403c-0.12943,0.00226 -0.25416,-0.04841 -0.34535,-0.1403c-0.08984,-0.09252 -0.14017,-0.21638 -0.1403,-0.34535c0.01525,-0.1658 0.05151,-0.32899 0.10792,-0.48564c0.05215,-0.15297 0.12476,-0.29818 0.21584,-0.43168c0.17832,-0.27196 0.41876,-0.49761 0.70148,-0.65832z" fill="#0a0000" stroke="none" stroke-width="1" stroke-linecap="butt" stroke-linejoin="miter"/><path d="M227.16567,231.23665c0.12049,-0.05223 0.25723,-0.05223 0.37772,0c0.10849,0.06384 0.18639,0.169 0.21584,0.29139c0.04798,0.1176 0.04798,0.24933 0,0.36693c-0.06522,0.10946 -0.16924,0.19037 -0.29139,0.22663h-0.07554h0.11871c-0.07061,0.02906 -0.13617,0.06913 -0.19426,0.11871l0.09713,-0.07554c-0.06881,0.04884 -0.13054,0.10695 -0.18347,0.17267l0.07554,-0.09713c-0.05564,0.0677 -0.09943,0.14432 -0.1295,0.22663v-0.11871c-0.03137,0.07987 -0.05312,0.1632 -0.06475,0.24822v-0.1295c-0.00542,0.07905 -0.00542,0.15837 0,0.23743v-0.10792c0.0215,0.08134 0.0215,0.16688 0,0.24822l-0.05396,0.11871c-0.06096,0.10876 -0.16144,0.18991 -0.28059,0.22663c-0.12122,0.04863 -0.25651,0.04863 -0.37772,0c-0.11175,-0.06258 -0.19348,-0.16767 -0.22663,-0.29139c-0.01069,-0.09684 -0.01069,-0.19455 0,-0.29139c-0.01061,-0.09684 -0.01061,-0.19455 0,-0.29139c0.12588,-0.50155 0.49459,-0.90673 0.98208,-1.07921z" fill="#0a0000" stroke="none" stroke-width="1" stroke-linecap="butt" stroke-linejoin="miter"/><path d="M228.08299,232.99576c0.0433,-0.07025 0.10243,-0.12938 0.17267,-0.17267h0.11871c0.12122,-0.04863 0.25651,-0.04863 0.37772,0c0.10936,0.06286 0.18758,0.16845 0.21584,0.29139c0.04863,0.12122 0.04863,0.25651 0,0.37772l-0.72307,0.98208c-0.0433,0.07025 -0.10243,0.12938 -0.17267,0.17267h-0.11871c-0.1176,0.04798 -0.24933,0.04798 -0.36693,0c-0.23273,-0.1362 -0.31418,-0.43326 -0.18347,-0.66911l0.72307,-0.98208z" fill="#0a0000" stroke="none" stroke-width="1" stroke-linecap="butt" stroke-linejoin="miter"/><path d="M229.39963,233.95625c0.03975,-0.12032 0.1198,-0.22324 0.22663,-0.29139c0.12122,-0.04863 0.25651,-0.04863 0.37772,0c0.11996,0.03449 0.22344,0.11114 0.29139,0.21584c0.04277,0.12227 0.04277,0.25545 0,0.37772c-0.10487,0.52841 -0.35963,1.01546 -0.73386,1.40297c-0.1925,0.18641 -0.49819,0.18641 -0.69069,0c-0.08984,-0.09252 -0.14017,-0.21638 -0.1403,-0.34535c0.0023,-0.12853 0.0523,-0.25163 0.1403,-0.34535c0.06298,-0.05581 0.12077,-0.11721 0.17267,-0.18347l-0.07554,0.09713c0.11712,-0.16638 0.21829,-0.34344 0.30218,-0.52881l-0.05396,0.11871c0.06297,-0.15304 0.10998,-0.31216 0.1403,-0.47485z" fill="#0a0000" stroke="none" stroke-width="1" stroke-linecap="butt" stroke-linejoin="miter"/><path d="M230.44646,235.24051c0.07811,-0.25637 0.34563,-0.40445 0.60436,-0.33455c0.12413,0.03268 0.22975,0.11422 0.29278,0.22605c0.06303,0.11183 0.0781,0.2444 0.04178,0.36751c-0.14788,0.5044 -0.44514,0.95216 -0.85257,1.28426c-0.05417,0.06236 -0.12547,0.10739 -0.20505,0.1295h-0.1295c-0.13025,-0.00413 -0.25392,-0.05823 -0.34535,-0.15109c-0.0892,-0.08856 -0.13965,-0.20886 -0.1403,-0.33455c-0.00492,-0.1299 0.04617,-0.25567 0.1403,-0.34535c0.12959,-0.11518 0.24877,-0.24158 0.35614,-0.37772l-0.07554,0.09713c0.11755,-0.15261 0.21544,-0.3194 0.29139,-0.49644v0.10792c0.0264,-0.06305 0.04805,-0.12798 0.06475,-0.19426z" fill="#0a0000" stroke="none" stroke-width="1" stroke-linecap="butt" stroke-linejoin="miter"/><path d="M232.64804,236.28734c0.12699,0.00465 0.2471,0.05889 0.33455,0.15109c0.09643,0.08438 0.15154,0.20642 0.15109,0.33455c0.00216,0.13159 -0.05298,0.25763 -0.15109,0.34535l-0.88495,0.84178c-0.09372,0.088 -0.21681,0.138 -0.34535,0.1403c-0.1299,0.00492 -0.25567,-0.04617 -0.34535,-0.1403c-0.18641,-0.1925 -0.18641,-0.49819 0,-0.69069l0.89574,-0.83099c0.09143,-0.09285 0.2151,-0.14696 0.34535,-0.15109z" fill="#0a0000" stroke="none" stroke-width="1" stroke-linecap="butt" stroke-linejoin="miter"/><path d="M233.46824,237.17229c0.05948,-0.11439 0.16587,-0.19715 0.29139,-0.22663c0.12792,-0.03561 0.2649,-0.01605 0.37772,0.05396c0.10331,0.06458 0.17993,0.16418 0.21584,0.28059c0.04863,0.12122 0.04863,0.25651 0,0.37772c-0.2452,0.56113 -0.67054,1.02446 -1.20871,1.31663c-0.1176,0.04798 -0.24933,0.04798 -0.36693,0c-0.12372,-0.03315 -0.2288,-0.11488 -0.29139,-0.22663c-0.07085,-0.1085 -0.09058,-0.24262 -0.05396,-0.36693c0.03315,-0.12372 0.11488,-0.2288 0.22663,-0.29139c0.12639,-0.06275 0.24577,-0.13872 0.35614,-0.22663l-0.09713,0.07554c0.15601,-0.12366 0.29724,-0.26488 0.42089,-0.42089l-0.07554,0.09713c0.0928,-0.12657 0.17579,-0.26007 0.24822,-0.39931z" fill="#0a0000" stroke="none" stroke-width="1" stroke-linecap="butt" stroke-linejoin="miter"/><path d="M234.882,237.88457c0.06814,-0.10683 0.17107,-0.18689 0.29139,-0.22663c0.12142,-0.04754 0.2563,-0.04754 0.37772,0c0.11123,0.06074 0.19016,0.16729 0.21584,0.29139c0.04798,0.1176 0.04798,0.24933 0,0.36693c-0.38406,0.54393 -0.8022,1.063 -1.25188,1.55406c-0.19372,0.16709 -0.48383,0.15525 -0.66329,-0.02706c-0.17946,-0.18231 -0.18672,-0.47258 -0.01661,-0.66364c0.28059,-0.31297 0.56119,-0.63673 0.8202,-0.97129l-0.08634,0.09713c0.1281,-0.15102 0.24702,-0.30959 0.35614,-0.47485z" fill="#0a0000" stroke="none" stroke-width="1" stroke-linecap="butt" stroke-linejoin="miter"/><path d="M235.89645,238.74793c0.0433,-0.07025 0.10243,-0.12938 0.17267,-0.17267h0.11871c0.12021,-0.05356 0.25751,-0.05356 0.37772,0c0.05268,0.02775 0.09729,0.06864 0.1295,0.11871c0.04325,0.0491 0.073,0.10861 0.08634,0.17267c0.02138,0.06298 0.02138,0.13127 0,0.19426c0.01563,0.0565 0.01563,0.11618 0,0.17267c-0.05772,0.12796 -0.12631,0.25072 -0.20505,0.36693c-0.10725,0.13956 -0.22642,0.26955 -0.35614,0.38851c-0.05993,0.06062 -0.13416,0.10516 -0.21584,0.1295h-0.15109c-0.12943,0.00226 -0.25416,-0.04841 -0.34535,-0.1403c-0.04213,-0.04338 -0.07516,-0.09475 -0.09713,-0.15109c-0.01515,-0.06387 -0.01515,-0.13039 0,-0.19426c-0.01603,-0.0601 -0.01603,-0.12336 0,-0.18347c0.02172,-0.05968 0.05469,-0.11463 0.09713,-0.16188c0.09703,-0.07902 0.18402,-0.16963 0.25901,-0.2698l-0.07554,0.09713c0.09347,-0.11424 0.16981,-0.24149 0.22663,-0.37772z" fill="#0a0000" stroke="none" stroke-width="1" stroke-linecap="butt" stroke-linejoin="miter"/><path d="M233.06893,231.77626c0,-0.26822 0.21743,-0.48564 0.48564,-0.48564c0.26822,0 0.48564,0.21743 0.48564,0.48564c0,0.26822 -0.21743,0.48564 -0.48564,0.48564c-0.26822,0 -0.48564,-0.21743 -0.48564,-0.48564z" fill="#0a0000" stroke="none" stroke-width="1" stroke-linecap="butt" stroke-linejoin="miter"/><path d="M231.8818,231.3014c0,-0.26822 0.21743,-0.48564 0.48564,-0.48564c0.26822,0 0.48564,0.21743 0.48564,0.48564c0,0.26822 -0.21743,0.48564 -0.48564,0.48564c-0.26822,0 -0.48564,-0.21743 -0.48564,-0.48564z" fill="#0a0000" stroke="none" stroke-width="1" stroke-linecap="butt" stroke-linejoin="miter"/><path d="M263.88029,226.18596c-1.0882,3.32769 -2.76208,6.43423 -4.94277,9.17326c0.84377,0.35919 1.71314,0.655 2.60089,0.88495c0.8865,0.2255 1.64033,0.80746 2.08287,1.60802c0.36693,0.96049 -0.43168,1.73752 -1.24109,2.22317c-0.56825,0.39747 -1.26814,0.55988 -1.95336,0.45327c-0.44127,-0.11362 -0.86066,-0.2996 -1.24109,-0.5504l-8.92504,-5.19099c-0.33179,-0.14648 -0.61057,-0.39135 -0.79861,-0.70148c-0.19426,-0.49644 0.30218,-0.83099 0.71228,-1.07921c1.85469,-1.0913 3.13693,-2.94167 3.50742,-5.06148c0.22663,-1.30584 0.1295,-2.68723 0.42089,-3.97148c0.20396,-1.34989 1.20042,-2.44431 2.52534,-2.77356c1.5786,-0.16642 3.15218,0.3568 4.31683,1.43535c1.12916,1.01862 2.01759,2.27569 2.60089,3.6801" fill="#e4bdd0" stroke="#0a0000" stroke-width="2.4" stroke-linecap="butt" stroke-linejoin="miter"/><path d="M257.01653,234.42031c1.78069,-0.80941 4.74851,-0.18347 7.23069,1.2303c1.28636,0.63134 2.33475,1.66079 2.9894,2.93544c0.2259,0.65652 0.1384,1.38037 -0.23743,1.96416c-0.20818,0.40091 -0.5264,0.73412 -0.91733,0.96049c-0.98208,0.5396 -2.63327,0.30218 -4.15495,-0.31297c-1.52408,-0.67446 -2.97736,-1.49871 -4.33841,-2.46059l-7.26306,-4.7593c-0.28389,-0.15759 -0.53631,-0.36612 -0.74465,-0.61515c-0.18154,-0.30993 -0.18154,-0.69374 0,-1.00366c0.21584,-0.58277 0.64752,-1.24109 1.55406,-0.97129c0.3097,0.1081 0.60367,0.25691 0.87416,0.44247c1.8994,1.20871 4.00386,2.67643 5.87089,2.68723" fill="#ffffff" stroke="none" stroke-width="1" stroke-linecap="butt" stroke-linejoin="miter"/><path d="M259.74693,238.73714c0.14796,-1.54939 1.24667,-2.84198 2.75198,-3.23762" fill="#ffffff" stroke="none" stroke-width="1" stroke-linecap="butt" stroke-linejoin="miter"/><path d="M260.42683,238.01407c1.61836,0.79067 3.10384,1.82833 4.40316,3.07574" fill="#ffffff" stroke="none" stroke-width="1" stroke-linecap="butt" stroke-linejoin="miter"/><path d="M261.05277,237.07516c1.86612,0.8196 3.60082,1.91061 5.14782,3.23762" fill="#ffffff" stroke="none" stroke-width="1" stroke-linecap="butt" stroke-linejoin="miter"/><path d="M261.71108,235.95279c1.86057,0.82385 3.59112,1.91451 5.13703,3.23762" fill="#ffffff" stroke="none" stroke-width="1" stroke-linecap="butt" stroke-linejoin="miter"/><path d="M266.56752,241.12219l-1.34901,2.15841c-0.10083,0.19226 -0.2449,0.35851 -0.42089,0.48564c-0.21581,0.12418 -0.46398,0.18059 -0.71228,0.16188c-2.0397,0 -3.91752,-1.07921 -5.68742,-2.08287l-9.9287,-5.83851c-0.18065,-0.08599 -0.33385,-0.2205 -0.44247,-0.38851c-0.05369,-0.17954 -0.05369,-0.37086 0,-0.5504c0.09655,-0.85161 0.47665,-1.64604 1.07921,-2.25554" fill="#ffffff" stroke="none" stroke-width="1" stroke-linecap="butt" stroke-linejoin="miter"/><path d="M249.55921,236.14704c0.0023,-0.50012 0.16917,-0.98556 0.47485,-1.38138" fill="#ffffff" stroke="none" stroke-width="1" stroke-linecap="butt" stroke-linejoin="miter"/><path d="M251.2104,237.0212c-0.0267,-0.48737 0.17713,-0.95896 0.5504,-1.27346" fill="#ffffff" stroke="none" stroke-width="1" stroke-linecap="butt" stroke-linejoin="miter"/><path d="M253.17456,237.87377c-0.14238,-0.438 0.04242,-0.91577 0.44247,-1.14396" fill="#ffffff" stroke="none" stroke-width="1" stroke-linecap="butt" stroke-linejoin="miter"/><path d="M255.13871,238.00328l-0.52881,1.07921" fill="#ffffff" stroke="none" stroke-width="1" stroke-linecap="butt" stroke-linejoin="miter"/><path d="M256.56327,238.64001c-0.00272,0.45662 -0.13766,0.90269 -0.38851,1.28426" fill="#ffffff" stroke="none" stroke-width="1" stroke-linecap="butt" stroke-linejoin="miter"/><path d="M257.90148,239.64367c-0.05613,0.43372 -0.23597,0.84211 -0.51802,1.17634" fill="#ffffff" stroke="none" stroke-width="1" stroke-linecap="butt" stroke-linejoin="miter"/><path d="M259.08861,241.72654l0.72307,-0.99287" fill="#ffffff" stroke="none" stroke-width="1" stroke-linecap="butt" stroke-linejoin="miter"/><path d="M261.20386,241.16536c-0.13035,0.48632 -0.41893,0.91539 -0.8202,1.2195" fill="#ffffff" stroke="none" stroke-width="1" stroke-linecap="butt" stroke-linejoin="miter"/><path d="M262.73633,241.5107c-0.25634,0.56678 -0.55205,1.11492 -0.88495,1.64039" fill="#ffffff" stroke="none" stroke-width="1" stroke-linecap="butt" stroke-linejoin="miter"/><path d="M263.85871,242.24456c-0.06462,0.26945 -0.19015,0.52049 -0.36693,0.73386" fill="#ffffff" stroke="none" stroke-width="1" stroke-linecap="butt" stroke-linejoin="miter"/><path d="M259.80089,235.6614" fill="#ffffff" stroke="none" stroke-width="1" stroke-linecap="butt" stroke-linejoin="miter"/><path d="M258.54901,235.40239" fill="#ffffff" stroke="none" stroke-width="1" stroke-linecap="butt" stroke-linejoin="miter"/><g clip-path="url(#clip-27)" stroke-linecap="butt" stroke-linejoin="miter"><path d="M271.96468,234.45642l-4.24823,12.50773l-23.98336,-8.14592l4.24823,-12.50773z" fill="#ffffff" stroke="#0a0000" stroke-width="0.4"/></g><path d="M257.01653,234.42031c1.78069,-0.80941 4.74851,-0.18347 7.23069,1.2303c1.28636,0.63134 2.33475,1.66079 2.9894,2.93544c0.2259,0.65652 0.1384,1.38037 -0.23743,1.96416c-0.20818,0.40091 -0.5264,0.73412 -0.91733,0.96049c-0.98208,0.5396 -2.63327,0.30218 -4.15495,-0.31297c-1.52408,-0.67446 -2.97736,-1.49871 -4.33841,-2.46059l-7.26306,-4.7593c-0.28389,-0.15759 -0.53631,-0.36612 -0.74465,-0.61515c-0.18154,-0.30993 -0.18154,-0.69374 0,-1.00366c0.21584,-0.58277 0.64752,-1.24109 1.55406,-0.97129c0.3097,0.1081 0.60367,0.25691 0.87416,0.44247c1.8994,1.20871 4.00386,2.67643 5.87089,2.68723" fill="none" stroke="#0a0000" stroke-width="0.4" stroke-linecap="butt" stroke-linejoin="miter"/><path d="M259.74693,238.73714c0.14796,-1.54939 1.24667,-2.84198 2.75198,-3.23762" fill="none" stroke="#0a0000" stroke-width="0.4" stroke-linecap="butt" stroke-linejoin="miter"/><path d="M260.42683,238.01407c1.61836,0.79067 3.10384,1.82833 4.40316,3.07574" fill="none" stroke="#0a0000" stroke-width="0.4" stroke-linecap="butt" stroke-linejoin="miter"/><path d="M261.05277,237.07516c1.86612,0.8196 3.60082,1.91061 5.14782,3.23762" fill="none" stroke="#0a0000" stroke-width="0.4" stroke-linecap="butt" stroke-linejoin="miter"/><path d="M261.71108,235.95279c1.86057,0.82385 3.59112,1.91451 5.13703,3.23762" fill="none" stroke="#0a0000" stroke-width="0.4" stroke-linecap="butt" stroke-linejoin="miter"/><path d="M266.56752,241.12219l-1.34901,2.15841c-0.10083,0.19226 -0.2449,0.35851 -0.42089,0.48564c-0.21581,0.12418 -0.46398,0.18059 -0.71228,0.16188c-2.0397,0 -3.91752,-1.07921 -5.68742,-2.08287l-9.9287,-5.83851c-0.18065,-0.08599 -0.33385,-0.2205 -0.44247,-0.38851c-0.05369,-0.17954 -0.05369,-0.37086 0,-0.5504c0.09655,-0.85161 0.47665,-1.64604 1.07921,-2.25554" fill="none" stroke="#0a0000" stroke-width="0.4" stroke-linecap="butt" stroke-linejoin="miter"/><path d="M249.55921,236.14704c0.0023,-0.50012 0.16917,-0.98556 0.47485,-1.38138" fill="none" stroke="#0a0000" stroke-width="0.4" stroke-linecap="butt" stroke-linejoin="miter"/><path d="M251.2104,237.0212c-0.0267,-0.48737 0.17713,-0.95896 0.5504,-1.27346" fill="none" stroke="#0a0000" stroke-width="0.4" stroke-linecap="butt" stroke-linejoin="miter"/><path d="M253.17456,237.87377c-0.14238,-0.438 0.04242,-0.91577 0.44247,-1.14396" fill="none" stroke="#0a0000" stroke-width="0.4" stroke-linecap="butt" stroke-linejoin="miter"/><path d="M255.13871,238.00328l-0.52881,1.07921" fill="none" stroke="#0a0000" stroke-width="0.4" stroke-linecap="butt" stroke-linejoin="miter"/><path d="M256.56327,238.64001c-0.00272,0.45662 -0.13766,0.90269 -0.38851,1.28426" fill="none" stroke="#0a0000" stroke-width="0.4" stroke-linecap="butt" stroke-linejoin="miter"/><path d="M257.90148,239.64367c-0.05613,0.43372 -0.23597,0.84211 -0.51802,1.17634" fill="none" stroke="#0a0000" stroke-width="0.4" stroke-linecap="butt" stroke-linejoin="miter"/><path d="M259.08861,241.72654l0.72307,-0.99287" fill="none" stroke="#0a0000" stroke-width="0.4" stroke-linecap="butt" stroke-linejoin="miter"/><path d="M261.20386,241.16536c-0.13035,0.48632 -0.41893,0.91539 -0.8202,1.2195" fill="none" stroke="#0a0000" stroke-width="0.4" stroke-linecap="butt" stroke-linejoin="miter"/><path d="M262.73633,241.5107c-0.25634,0.56678 -0.55205,1.11492 -0.88495,1.64039" fill="none" stroke="#0a0000" stroke-width="0.4" stroke-linecap="butt" stroke-linejoin="miter"/><path d="M263.85871,242.24456c-0.06462,0.26945 -0.19015,0.52049 -0.36693,0.73386" fill="none" stroke="#0a0000" stroke-width="0.4" stroke-linecap="butt" stroke-linejoin="miter"/><path d="M259.80089,235.6614" fill="none" stroke="#0a0000" stroke-width="0.4" stroke-linecap="butt" stroke-linejoin="miter"/><path d="M258.54901,235.40239" fill="none" stroke="#0a0000" stroke-width="0.4" stroke-linecap="butt" stroke-linejoin="miter"/><path d="M257.01653,234.42031c1.78069,-0.80941 4.74851,-0.18347 7.23069,1.2303c1.28636,0.63134 2.33475,1.66079 2.9894,2.93544c0.2259,0.65652 0.1384,1.38037 -0.23743,1.96416c-0.20818,0.40091 -0.5264,0.73412 -0.91733,0.96049c-0.98208,0.5396 -2.63327,0.30218 -4.15495,-0.31297c-1.52408,-0.67446 -2.97736,-1.49871 -4.33841,-2.46059l-7.26306,-4.7593c-0.28389,-0.15759 -0.53631,-0.36612 -0.74465,-0.61515c-0.18154,-0.30993 -0.18154,-0.69374 0,-1.00366c0.21584,-0.58277 0.64752,-1.24109 1.55406,-0.97129c0.3097,0.1081 0.60367,0.25691 0.87416,0.44247c1.8994,1.20871 4.00386,2.67643 5.87089,2.68723" fill="#ffffff" stroke="#0c0607" stroke-width="1.6" stroke-linecap="butt" stroke-linejoin="miter"/><path d="M262.30465,234.93833c0.3457,-0.09537 0.70324,0.10756 0.79861,0.45327c0.09537,0.3457 -0.10756,0.70324 -0.45327,0.79861l-0.2698,0.07554h-0.1403h-0.06475v0c-0.17077,0.21643 -0.41791,0.35931 -0.69069,0.39931c-0.09713,0.07554 0.10792,-0.08634 0,0l-0.10792,0.09713c-0.13392,0.12146 -0.26008,0.25123 -0.37772,0.38851c-0.05396,0.06475 -0.16188,0.1403 -0.05396,0.06475c0.10792,-0.07554 0,0.06475 0,0.06475c-0.05296,0.06773 -0.09989,0.13995 -0.1403,0.21584c-0.05073,0.07673 -0.09756,0.15597 -0.1403,0.23743l-0.06475,0.1295c0,0 -0.08634,0.1295 0,0c-0.07279,0.15404 -0.12366,0.3175 -0.15109,0.48564c-0.02669,0.09228 -0.04831,0.18595 -0.06475,0.28059c0,0.1403 0,-0.16188 0,0c0.00535,0.04661 0.00535,0.09369 0,0.1403c0,0.35762 -0.28991,0.64752 -0.64752,0.64752c-0.3552,-0.00577 -0.64175,-0.29232 -0.64752,-0.64752c0.12986,-1.86636 1.43042,-3.44438 3.23762,-3.92831z" fill="#0c0607" stroke="none" stroke-width="1" stroke-linecap="butt" stroke-linejoin="miter"/><path d="M260.24336,238.29467c-0.37772,-0.18347 -0.04317,-0.74465 0.32376,-0.56119c1.64209,0.81157 3.15205,1.86673 4.47871,3.1297c0.30218,0.28059 -0.16188,0.74465 -0.46406,0.45327c-1.27333,-1.22526 -2.72974,-2.24474 -4.31683,-3.02178z" fill="#0c0607" stroke="none" stroke-width="1" stroke-linecap="butt" stroke-linejoin="miter"/><path d="M260.89089,237.36655c-0.37772,-0.17267 -0.05396,-0.73386 0.32376,-0.56119c1.88285,0.82545 3.6381,1.91568 5.21257,3.23762c0.32376,0.2698 -0.1403,0.72307 -0.45327,0.46406c-1.53224,-1.29182 -3.24459,-2.35342 -5.08307,-3.15128z" fill="#0c0607" stroke="none" stroke-width="1" stroke-linecap="butt" stroke-linejoin="miter"/><path d="M261.5492,236.25496c-0.38851,-0.16188 -0.05396,-0.72307 0.32376,-0.56119c1.88285,0.82545 3.6381,1.91568 5.21257,3.23762c0.31297,0.2698 -0.1403,0.72307 -0.46406,0.45327c-1.53383,-1.28418 -3.24148,-2.3451 -5.07227,-3.15128z" fill="#0c0607" stroke="none" stroke-width="1" stroke-linecap="butt" stroke-linejoin="miter"/><path d="M266.15742,240.87397c0.33455,-0.52881 1.17634,-0.04317 0.84178,0.48564l-1.15475,1.81307c-0.18846,0.37441 -0.45751,0.70243 -0.78782,0.96049c-0.8581,0.32897 -1.80754,0.32897 -2.66564,0c-2.35267,-0.52881 -4.43554,-2.0397 -6.47524,-3.23762l-7.2091,-4.2197c-0.74465,-0.43168 -1.30584,-0.75544 -1.2195,-1.70515c0.12716,-0.95776 0.56283,-1.84806 1.24109,-2.53614c0.42089,-0.46406 1.11158,0.22663 0.6799,0.6799c-0.336,0.35198 -0.59995,0.76626 -0.77703,1.2195c-0.06036,0.18057 -0.11079,0.36432 -0.15109,0.5504c-0.0394,0.38399 0.19427,0.74349 0.56119,0.86337c0.81047,0.56858 1.66586,1.07027 2.55772,1.5001l5.12623,3.02178c1.58071,1.04833 3.25312,1.95137 4.99673,2.69802c0.74465,0.29139 2.16921,0.79861 2.90307,0.29139c0.3067,-0.34608 0.5612,-0.7351 0.75544,-1.15475l0.76624,-1.20871z" fill="#0a0000" stroke="none" stroke-width="1" stroke-linecap="butt" stroke-linejoin="miter"/><path d="M249.65634,234.51744c0.04022,-0.07262 0.10005,-0.13245 0.17267,-0.17267l0.10792,-0.05396c0.12782,-0.03701 0.26538,-0.01735 0.37772,0.05396c0.11175,0.06258 0.19348,0.16767 0.22663,0.29139c0.05311,0.11654 0.05311,0.25039 0,0.36693c-0.1178,0.16021 -0.21564,0.33417 -0.29139,0.51802v-0.11871c-0.07523,0.19143 -0.1295,0.39045 -0.16188,0.59356v-0.1295c-0.00494,0.09347 -0.00494,0.18712 0,0.28059c0,0.26822 -0.21743,0.48564 -0.48564,0.48564c-0.26822,0 -0.48564,-0.21743 -0.48564,-0.48564c0.00762,-0.58755 0.2002,-1.15776 0.5504,-1.6296z" fill="#0a0000" stroke="none" stroke-width="1" stroke-linecap="butt" stroke-linejoin="miter"/><path d="M251.49099,235.40239c0.08982,-0.0873 0.20933,-0.13742 0.33455,-0.1403c0.12969,-0.00298 0.25496,0.04723 0.34668,0.13896c0.09173,0.09173 0.14194,0.217 0.13896,0.34668c0.00185,0.12619 -0.049,0.24743 -0.1403,0.33455c-0.0839,0.0747 -0.15984,0.15789 -0.22663,0.24822l0.07554,-0.09713c-0.08221,0.10241 -0.15111,0.21482 -0.20505,0.33455v-0.10792c-0.05574,0.12775 -0.09561,0.26185 -0.11871,0.39931v-0.1295c-0.01078,0.09683 -0.01078,0.19456 0,0.29139c0.00298,0.12969 -0.04723,0.25496 -0.13896,0.34668c-0.09173,0.09173 -0.217,0.14194 -0.34668,0.13896c-0.12943,0.00226 -0.25416,-0.04841 -0.34535,-0.1403c-0.08331,-0.09665 -0.1326,-0.21798 -0.1403,-0.34535c-0.0253,-0.61835 0.233,-1.21443 0.70148,-1.61881z" fill="#0a0000" stroke="none" stroke-width="1" stroke-linecap="butt" stroke-linejoin="miter"/><path d="M253.5199,236.26576c0.22982,-0.13154 0.52265,-0.05474 0.65832,0.17267c0.04863,0.12122 0.04863,0.25651 0,0.37772c-0.03673,0.11916 -0.11787,0.21963 -0.22663,0.28059l-0.11871,0.08634l0.09713,-0.07554c-0.06414,0.04273 -0.11916,0.09774 -0.16188,0.16188l0.07554,-0.09713c-0.05535,0.06988 -0.10244,0.14593 -0.1403,0.22663v-0.11871c-0.03172,0.08349 -0.05345,0.17043 -0.06475,0.25901v-0.1295c-0.01086,0.08239 -0.01086,0.16583 0,0.24822v-0.1295c-0.00616,0.05739 -0.00616,0.11528 0,0.17267c0.03561,0.12792 0.01605,0.2649 -0.05396,0.37772c-0.06133,0.10619 -0.16222,0.1838 -0.28059,0.21584c-0.12122,0.04863 -0.25651,0.04863 -0.37772,0c-0.10683,-0.06814 -0.18689,-0.17107 -0.22663,-0.29139c-0.19494,-0.65417 0.08684,-1.35639 0.6799,-1.69436z" fill="#0a0000" stroke="none" stroke-width="1" stroke-linecap="butt" stroke-linejoin="miter"/><path d="M254.78258,237.77665c0.05948,-0.11439 0.16587,-0.19715 0.29139,-0.22663c0.1176,-0.04798 0.24933,-0.04798 0.36693,0c0.10746,0.06746 0.1877,0.17063 0.22663,0.29139c0.03073,0.12819 0.01143,0.26326 -0.05396,0.37772l-0.52881,1.07921c-0.06384,0.10849 -0.169,0.18639 -0.29139,0.21584c-0.1176,0.04798 -0.24933,0.04798 -0.36693,0c-0.10946,-0.06522 -0.19037,-0.16924 -0.22663,-0.29139c-0.04754,-0.12142 -0.04754,-0.2563 0,-0.37772l0.52881,-1.07921z" fill="#0a0000" stroke="none" stroke-width="1" stroke-linecap="butt" stroke-linejoin="miter"/><path d="M256.56327,238.15437c0.26581,0.00572 0.47992,0.21983 0.48564,0.48564c-0.0024,0.54352 -0.15963,1.0751 -0.45327,1.53247c-0.08063,0.16437 -0.24684,0.26943 -0.4299,0.27174c-0.18307,0.00231 -0.35188,-0.09854 -0.43661,-0.26083c-0.08474,-0.16229 -0.071,-0.35845 0.03553,-0.50735c0.0753,-0.11644 0.1403,-0.23921 0.19426,-0.36693l-0.05396,0.11871c0.08372,-0.19304 0.14179,-0.39622 0.17267,-0.60436v0.1295c0.00573,-0.10424 0.00573,-0.20873 0,-0.31297c0.011,-0.26352 0.22212,-0.47465 0.48564,-0.48564z" fill="#0a0000" stroke="none" stroke-width="1" stroke-linecap="butt" stroke-linejoin="miter"/><path d="M257.35109,239.63288c-0.0016,-0.08711 0.02081,-0.17299 0.06475,-0.24822l0.07554,-0.09713c0.08967,-0.09413 0.21544,-0.14522 0.34535,-0.1403c0.12943,-0.00226 0.25416,0.04841 0.34535,0.1403c0.08984,0.09252 0.14017,0.21638 0.1403,0.34535c-0.07554,0.15109 -0.07554,0.30218 -0.07554,0.44247c-0.11957,0.39532 -0.31778,0.76241 -0.58277,1.07921c-0.1925,0.18641 -0.49819,0.18641 -0.69069,0c-0.08984,-0.09252 -0.14017,-0.21638 -0.1403,-0.34535c0.00288,-0.12522 0.053,-0.24473 0.1403,-0.33455l0.06475,-0.08634l-0.07554,0.10792c0.11725,-0.1625 0.21844,-0.33598 0.30218,-0.51802v0.11871c0.07734,-0.18625 0.1282,-0.38241 0.15109,-0.58277v0.1295v0z" fill="#0a0000" stroke="none" stroke-width="1" stroke-linecap="butt" stroke-linejoin="miter"/><path d="M259.38,240.49625c0.04728,-0.07072 0.11001,-0.12976 0.18347,-0.17267h0.10792c0.12452,-0.03656 0.25849,-0.02177 0.37204,0.04109c0.11354,0.06285 0.1972,0.16854 0.23232,0.29347c0.04754,0.12142 0.04754,0.2563 0,0.37772l-0.72307,0.98208c-0.0433,0.07025 -0.10243,0.12938 -0.17267,0.17267h-0.11871c-0.25602,0.06927 -0.52025,-0.07967 -0.59356,-0.33455c-0.04863,-0.12122 -0.04863,-0.25651 0,-0.37772l0.72307,-0.99287z" fill="#0a0000" stroke="none" stroke-width="1" stroke-linecap="butt" stroke-linejoin="miter"/><path d="M260.70742,241.02506c0.07331,-0.25489 0.33754,-0.40383 0.59356,-0.33455c0.12413,0.03268 0.22975,0.11422 0.29278,0.22605c0.06303,0.11183 0.0781,0.2444 0.04178,0.36751c-0.07395,0.28399 -0.19428,0.55383 -0.35614,0.79861c-0.09229,0.13875 -0.19705,0.26879 -0.31297,0.38851c-0.11196,0.11912 -0.23479,0.22752 -0.36693,0.32376c-0.17086,0.0996 -0.38505,0.08566 -0.54154,-0.03527c-0.1565,-0.12093 -0.22402,-0.32467 -0.17074,-0.51513c0.03913,-0.11761 0.11474,-0.21968 0.21584,-0.29139v0l-0.09713,0.07554c0.14902,-0.12026 0.28308,-0.25793 0.39931,-0.4101l-0.07554,0.09713c0.12086,-0.15235 0.22236,-0.3191 0.30218,-0.49644v0.11871c0.04242,-0.0983 0.07847,-0.19924 0.10792,-0.30218z" fill="#0a0000" stroke="none" stroke-width="1" stroke-linecap="butt" stroke-linejoin="miter"/><path d="M262.98455,241.08981c0.10746,0.06746 0.1877,0.17063 0.22663,0.29139c0.03186,0.12813 0.0125,0.26364 -0.05396,0.37772c-0.25863,0.56564 -0.55426,1.11362 -0.88495,1.64039c-0.13709,0.23245 -0.43666,0.30976 -0.66911,0.17267c-0.23245,-0.13709 -0.30976,-0.43666 -0.17267,-0.66911c0.33002,-0.52531 0.6291,-1.06944 0.89574,-1.6296c0.13201,-0.23133 0.42569,-0.31318 0.65832,-0.18347z" fill="#0a0000" stroke="none" stroke-width="1" stroke-linecap="butt" stroke-linejoin="miter"/><path d="M263.40544,242.08268c0.03315,-0.12372 0.11488,-0.2288 0.22663,-0.29139c0.1085,-0.07085 0.24262,-0.09058 0.36693,-0.05396c0.12372,0.03315 0.2288,0.11488 0.29139,0.22663c0.07085,0.1085 0.09058,0.24262 0.05396,0.36693c-0.04318,0.17505 -0.10467,0.34505 -0.18347,0.50723c-0.08439,0.15801 -0.18571,0.30637 -0.30218,0.44247c-0.08967,0.09413 -0.21544,0.14522 -0.34535,0.1403c-0.12943,0.00226 -0.25416,-0.04841 -0.34535,-0.1403c-0.08984,-0.09252 -0.14017,-0.21638 -0.1403,-0.34535c-0.01603,-0.0601 -0.01603,-0.12336 0,-0.18347c0.01936,-0.05763 0.05274,-0.10955 0.09713,-0.15109v0l-0.07554,0.09713c0.09555,-0.12263 0.17532,-0.25679 0.23743,-0.39931v0.11871c0.04198,-0.09365 0.07452,-0.19127 0.09713,-0.29139z" fill="#0a0000" stroke="none" stroke-width="1" stroke-linecap="butt" stroke-linejoin="miter"/><path d="M259.31524,235.6614c0,-0.26822 0.21743,-0.48564 0.48564,-0.48564c0.26822,0 0.48564,0.21743 0.48564,0.48564c0,0.26822 -0.21743,0.48564 -0.48564,0.48564c-0.26822,0 -0.48564,-0.21743 -0.48564,-0.48564z" fill="#0a0000" stroke="none" stroke-width="1" stroke-linecap="butt" stroke-linejoin="miter"/><path d="M258.06336,235.40239c0,-0.26822 0.21743,-0.48564 0.48564,-0.48564c0.26822,0 0.48564,0.21743 0.48564,0.48564c0,0.26822 -0.21743,0.48564 -0.48564,0.48564c-0.26822,0 -0.48564,-0.21743 -0.48564,-0.48564z" fill="#0a0000" stroke="none" stroke-width="1" stroke-linecap="butt" stroke-linejoin="miter"/><path d="M229.65864,222.8728l0.75544,0.61515" fill="none" stroke="#ffffff" stroke-width="0.4" stroke-linecap="butt" stroke-linejoin="miter"/><path d="M230.56517,223.61745l0.87416,0.70148" fill="none" stroke="#ffffff" stroke-width="0.4" stroke-linecap="butt" stroke-linejoin="miter"/><path d="M232.42141,225.13913l-0.72307,-0.61515" fill="none" stroke="#ffffff" stroke-width="0.4" stroke-linecap="butt" stroke-linejoin="miter"/><path d="M232.68042,225.31181l0.84178,0.49644" fill="none" stroke="#ffffff" stroke-width="0.4" stroke-linecap="butt" stroke-linejoin="miter"/><path d="M233.77041,225.95933l0.97129,0.56119" fill="none" stroke="#ffffff" stroke-width="0.4" stroke-linecap="butt" stroke-linejoin="miter"/><path d="M235.0115,226.60685l0.84178,0.45327" fill="none" stroke="#ffffff" stroke-width="0.4" stroke-linecap="butt" stroke-linejoin="miter"/><path d="M236.60873,227.47022l-0.47485,-0.24822" fill="none" stroke="#ffffff" stroke-width="0.4" stroke-linecap="butt" stroke-linejoin="miter"/><path d="M239.52259,196.07609l19.42573,2.22317c1.06363,2.7163 1.69718,5.58184 1.87782,8.49336c0.1295,2.15841 0.07554,6.05435 0.07554,6.05435v0c1.27727,1.09453 2.73895,1.95327 4.31683,2.53614c1.07921,0.5396 1.9102,3.23762 0.1403,13.22029c-0.84361,0.49544 -1.73709,0.90059 -2.66564,1.20871c-3.26098,1.00992 -6.76266,0.92655 -9.97187,-0.23743c1.07921,-2.35267 2.09366,-5.39604 0.75544,-7.23069c-1.01445,-1.40297 -2.80594,-1.46772 -6.2594,-2.15841c-3.24276,-0.66518 -6.42884,-1.58168 -9.5294,-2.74119" fill="#384998" stroke="#0c0607" stroke-width="1.82" stroke-linecap="square" stroke-linejoin="round"/><g clip-path="url(#clip-28)" stroke-linecap="butt" stroke-linejoin="miter"><path d="M266.48118,205.19539c1.8994,4.32762 -1.67277,7.31702 -9.35672,6.73425c-7.68395,-0.58277 -10.78128,-4.05782 -8.23435,-8.06168c7.02564,0.65832 10.54385,0.91733 17.59107,1.32742z" fill="#384998" stroke="#0c0607" stroke-width="1.85"/></g><path d="M236.19863,213.30023c0,0.04317 0,0.1403 0,0.1403c0,1.19206 -0.96635,2.15841 -2.15841,2.15841c-0.33726,-0.00692 -0.66887,-0.08798 -0.97129,-0.23743c-0.35407,0.76506 -1.12115,1.25396 -1.96416,1.25188c-1.19206,0 -2.15841,-0.96635 -2.15841,-2.15841c-0.81954,0.01452 -1.57659,-0.43643 -1.9541,-1.16399c-0.37751,-0.72756 -0.31033,-1.60617 0.17341,-2.26789c-0.25998,-0.36565 -0.39954,-0.80323 -0.39931,-1.25188c0,-1.19206 0.96635,-2.15841 2.15841,-2.15841h0.15109c0.31613,-0.84611 1.12567,-1.4059 2.02891,-1.40297c0.54382,-0.00105 1.068,0.20323 1.46772,0.57198c0.73574,-0.72714 1.88391,-0.83007 2.73725,-0.24538c0.85333,0.58469 1.17187,1.69259 0.75938,2.64122c0.93333,0.26172 1.57771,1.11354 1.57564,2.08287c0.00094,0.91831 -0.57928,1.73666 -1.44614,2.0397z" fill="#c56792" stroke="#0a0000" stroke-width="2.4" stroke-linecap="butt" stroke-linejoin="miter"/><path d="M240.09457,198.66618c-0.24374,0.06336 -0.48194,0.14637 -0.71228,0.24822c-0.19453,0.08621 -0.38214,0.18723 -0.56119,0.30218c-1.14396,0.75544 -5.46079,0.10792 -5.46079,0.10792c-2.43901,-0.50723 -5.1694,-0.78782 -5.82772,0.36693c-0.65832,1.15475 2.4498,3.31317 1.87782,6.15148c-0.24425,1.20945 -1.04401,2.23314 -2.15841,2.76277c-2.15841,0.96049 -4.79168,-0.92812 -5.95722,-2.15841c-2.76277,-2.97861 -1.86703,-7.10118 -1.79148,-7.45732c0.40642,-1.66042 1.29659,-3.16282 2.55772,-4.31683c1.39218,-1.27346 2.55772,-1.43535 12.34613,-2.27713c2.89227,-0.24822 4.31683,-0.35614 5.27732,0.49644c1.84544,1.59723 1.14396,5.52554 0.4101,5.77376z" fill="#e4bdd0" stroke="#0a0000" stroke-width="2.4" stroke-linecap="butt" stroke-linejoin="miter"/><path d="M246.48347,200.01519c-1.72125,0.87127 -3.37045,1.8781 -4.93198,3.01099c-2.64406,-4.99673 -3.23762,-6.83138 -5.88168,-11.16979c1.85168,-0.63532 3.65505,-1.40355 5.39604,-2.29871c2.49297,4.70534 2.97861,6.3997 5.41762,10.45752z" fill="#384998" stroke="#0c0607" stroke-width="0.8" stroke-linecap="butt" stroke-linejoin="miter"/><path d="M237.02962,192.23411c0.2698,-0.09713 0.4101,0.10792 0.1295,0.20505c-0.28059,0.08634 -0.39931,-0.10792 -0.1295,-0.20505z" fill="#ffffff" stroke="none" stroke-width="1" stroke-linecap="butt" stroke-linejoin="miter"/><path d="M237.08358,192.33124c0.31297,0.47485 0.46406,0.70148 0.73386,1.15475" fill="none" stroke="#ffffff" stroke-width="0.4" stroke-linecap="butt" stroke-linejoin="miter"/><path d="M238.22754,194.16589c0.23743,0.42089 0.34535,0.63673 0.56119,1.07921" fill="none" stroke="#ffffff" stroke-width="0.4" stroke-linecap="butt" stroke-linejoin="miter"/><path d="M239.15566,196.04371c0.17267,0.39931 0.2698,0.59356 0.44247,1.00366" fill="none" stroke="#ffffff" stroke-width="0.4" stroke-linecap="butt" stroke-linejoin="miter"/><path d="M240.61259,199.28133c-0.2698,-0.57198 -0.38851,-0.85257 -0.61515,-1.3598" fill="none" stroke="#ffffff" stroke-width="0.4" stroke-linecap="butt" stroke-linejoin="miter"/><path d="M241.5515,201.2239l-0.59356,-1.20871" fill="none" stroke="#ffffff" stroke-width="0.4" stroke-linecap="butt" stroke-linejoin="miter"/><path d="M240.90397,190.97144c0.29139,0.58277 0.43168,0.86337 0.69069,1.40297" fill="none" stroke="#ffffff" stroke-width="0.4" stroke-linecap="butt" stroke-linejoin="miter"/><path d="M241.97239,193.18381l0.50723,1.17634" fill="none" stroke="#ffffff" stroke-width="0.4" stroke-linecap="butt" stroke-linejoin="miter"/><path d="M243.25664,196.10846c-0.17267,-0.37772 -0.24822,-0.57198 -0.42089,-0.96049" fill="none" stroke="#ffffff" stroke-width="0.4" stroke-linecap="butt" stroke-linejoin="miter"/><path d="M243.93654,197.45747c-0.16188,-0.31297 -0.23743,-0.48564 -0.37772,-0.80941" fill="none" stroke="#ffffff" stroke-width="0.4" stroke-linecap="butt" stroke-linejoin="miter"/><path d="M244.4114,198.40717l0.38851,0.63673" fill="none" stroke="#ffffff" stroke-width="0.4" stroke-linecap="butt" stroke-linejoin="miter"/><path d="M246.00862,197.29559l0.93891,5.09386l-7.03643,1.30584l-0.93891,-5.09386zM244.79991,198.67698l-4.2197,0.78782l0.5396,2.84911l4.20891,-0.77703z" fill="#edea4f" stroke="#0c0607" stroke-width="0.8" stroke-linecap="butt" stroke-linejoin="miter"/><path d="M259.38,195.89262l0.80941,4.31683l-6.37811,1.18713l-0.80941,-4.31683zM258.29,197.10133l-3.83118,0.71228l0.45327,2.43901l3.83118,-0.71228z" fill="#edea4f" stroke="#0c0607" stroke-width="0.71" stroke-linecap="butt" stroke-linejoin="miter"/><path d="M256.14238,228.22566l-0.97129,0.11871" fill="none" stroke="#ffffff" stroke-width="0.4" stroke-linecap="butt" stroke-linejoin="miter"/><path d="M256.33663,228.20408l1.11158,-0.1403" fill="none" stroke="#ffffff" stroke-width="0.4" stroke-linecap="butt" stroke-linejoin="miter"/><path d="M258.72168,227.92349l-0.9497,0.09713" fill="none" stroke="#ffffff" stroke-width="0.4" stroke-linecap="butt" stroke-linejoin="miter"/><path d="M259.96277,227.58893l-0.93891,0.2698" fill="none" stroke="#ffffff" stroke-width="0.4" stroke-linecap="butt" stroke-linejoin="miter"/><path d="M261.32257,227.21121l-1.06841,0.30218" fill="none" stroke="#ffffff" stroke-width="0.4" stroke-linecap="butt" stroke-linejoin="miter"/><path d="M261.57079,227.07091l0.91733,-0.29139" fill="none" stroke="#ffffff" stroke-width="0.4" stroke-linecap="butt" stroke-linejoin="miter"/><path d="M263.29752,226.50972l-0.50723,0.17267" fill="none" stroke="#ffffff" stroke-width="0.4" stroke-linecap="butt" stroke-linejoin="miter"/><path d="M248.6311,205.78895l0.16188,1.2303" fill="none" stroke="#ffffff" stroke-width="0.43" stroke-linecap="butt" stroke-linejoin="miter"/><path d="M259.16416,209.28558l1.45693,-0.16188" fill="none" stroke="#ffffff" stroke-width="0.43" stroke-linecap="butt" stroke-linejoin="miter"/><path d="M257.02733,209.21004h1.27346" fill="none" stroke="#ffffff" stroke-width="0.43" stroke-linecap="butt" stroke-linejoin="miter"/><path d="M255.78624,209.21004h-0.90653" fill="none" stroke="#ffffff" stroke-width="0.43" stroke-linecap="butt" stroke-linejoin="miter"/><path d="M254.11347,209.21004l-1.45693,-0.4101" fill="none" stroke="#ffffff" stroke-width="0.43" stroke-linecap="butt" stroke-linejoin="miter"/><path d="M250.82189,208.31429l1.29505,0.32376" fill="none" stroke="#ffffff" stroke-width="0.43" stroke-linecap="butt" stroke-linejoin="miter"/><path d="M249.11674,207.50489l1.70515,0.80941" fill="none" stroke="#ffffff" stroke-width="0.43" stroke-linecap="butt" stroke-linejoin="miter"/><path d="M278.98919,166.20364c2.42822,20.11642 -19.84662,25.62037 -34.1569,25.62037c-15.9291,0 -36.61749,-3.48584 -34.1569,-25.62037c2.00733,-17.958 17.10543,-26.86146 34.1569,-26.30028c15.99385,0.51802 32.09562,9.2596 34.1569,26.30028z" fill="#c56792" stroke="#0a0000" stroke-width="2.4" stroke-linecap="butt" stroke-linejoin="miter"/><path d="M242.11268,134.66921c-0.03238,-0.16188 -0.1295,-0.51802 -0.1295,-0.9497c-0.11827,-1.58423 -0.02755,-3.17715 0.2698,-4.73772c0.20505,-2.51455 -1.80228,-4.50029 -2.5901,-5.28811c-2.93544,-2.94624 -6.61554,-2.21237 -6.78821,-3.6693c-0.17267,-1.45693 2.92465,-3.23762 5.15861,-3.96069c2.19217,-0.67009 4.54658,-0.5788 6.68029,0.25901c1.77894,0.70303 3.3107,1.91567 4.40316,3.48584c2.43901,3.48584 1.66198,7.54366 0.16188,15.45424c-0.96049,5.09386 -1.64039,5.61188 -2.10445,5.73059c-1.72673,0.46406 -4.51109,-3.41029 -5.06148,-6.32415z" fill="#c56792" stroke="#0a0000" stroke-width="2.4" stroke-linecap="square" stroke-linejoin="bevel"/><path d="M274.68315,169.40888c0.35614,4.84564 0.72307,9.76682 -1.84544,14.13761c-5.39604,9.19484 -19.8682,9.35672 -28.66374,9.45385c-6.64792,0.07554 -10.64098,0.11871 -14.84989,-2.52534c-9.30276,-5.8493 -9.59415,-18.46523 -9.60494,-20.05167c-0.06475,-8.75237 4.25208,-18.79979 12.28138,-22.73889c3.23762,-1.59723 6.62633,-1.74832 13.37138,-2.06129c5.94643,-0.2698 9.71286,-0.44247 14.21316,1.33822c4.43175,1.74065 8.24502,4.76121 10.95395,8.67682c3.50742,5.09386 3.87435,10.15534 4.14415,13.77068z" fill="#e4bdd0" stroke="#0a0000" stroke-width="2.4" stroke-linecap="butt" stroke-linejoin="miter"/><path d="M249.49446,188.35976c-2.37877,-0.08602 -4.63897,-1.06019 -6.33495,-2.73039c-1.30471,-1.37595 -2.01769,-3.20874 -1.98574,-5.10465h16.63058c-0.14183,2.16022 -1.13087,4.17707 -2.75198,5.61188c-1.57652,1.30075 -3.51923,2.07784 -5.55792,2.22317z" fill="none" stroke="#0a0000" stroke-width="2" stroke-linecap="butt" stroke-linejoin="miter"/><path d="M246.26763,175.13947c0,-1.01921 1.36256,-1.84544 3.04336,-1.84544c1.6808,0 3.04336,0.82623 3.04336,1.84544c0,1.01921 -1.36256,1.84544 -3.04336,1.84544c-1.6808,0 -3.04336,-0.82623 -3.04336,-1.84544z" fill="#0a0000" stroke="none" stroke-width="1" stroke-linecap="butt" stroke-linejoin="miter"/><path d="M254.15664,154.28919c0.15898,0.45701 0.04992,0.96454 -0.28277,1.3159c-0.33269,0.35136 -0.8335,0.48795 -1.29851,0.35414c-0.46501,-0.13381 -0.81664,-0.51569 -0.91169,-0.99014c-0.4101,-2.40663 1.68356,-4.30604 3.78802,-4.94277c2.10445,-0.63673 4.85643,-0.23743 6.17306,1.67277c0.25804,0.40021 0.27564,0.90975 0.04582,1.3268c-0.22982,0.41706 -0.66998,0.67434 -1.14615,0.66997c-0.47617,-0.00438 -0.91152,-0.26972 -1.13363,-0.69093c-0.1295,-0.21584 0.19426,0.16188 0,0l-0.19426,-0.18347c0,0 0.1403,0.08634 0,0l-0.24822,-0.15109l-0.21584,-0.10792c-0.10792,-0.06475 0.19426,0.05396 0,0c-0.19426,-0.05396 -0.37772,-0.16188 -0.57198,-0.16188h-0.2698c0.23743,0 0.1295,0 0,0c-0.21193,-0.01616 -0.4248,-0.01616 -0.63673,0h-0.29139c-0.06475,0 -0.32376,0 -0.06475,0c-0.19685,0.03055 -0.39151,0.07382 -0.58277,0.1295l-0.35614,0.10792c-0.02158,0.01079 -0.31297,0.1295 -0.17267,0.06475l-0.16188,0.08634l-0.25901,0.1403l-0.23743,0.15109c-0.09713,0.06475 -0.29139,0.24822 -0.09713,0.06475l-0.38851,0.36693c-0.02158,0.02158 -0.21584,0.22663 -0.09713,0.09713c0.11871,-0.1295 -0.07554,0.10792 -0.07554,0.10792c-0.0403,0.08623 -0.0872,0.16922 -0.1403,0.24822c-0.1295,0.21584 0.07554,-0.07554 0,0c-0.07554,0.07554 -0.07554,0.1403 -0.07554,0.21584v0.11871c0,0.11871 0,0.17267 0,0c0,-0.17267 0,-0.01079 0,0.08634c0,0.09713 0.06475,0.35614 0,0z" fill="#0c0607" stroke="none" stroke-width="1" stroke-linecap="butt" stroke-linejoin="miter"/><path d="M234.07259,156.5879c-0.68492,-0.19898 -1.08686,-0.90716 -0.90653,-1.59723c0.42089,-2.14762 3.27,-2.83831 5.11544,-2.67643c2.0397,0.1403 4.56505,1.07921 5.27732,3.23762c0.14305,0.73609 -0.33772,1.44878 -1.07381,1.59183c-0.73609,0.14305 -1.44878,-0.33772 -1.59183,-1.07381c-0.07554,-0.24822 0.16188,0.23743 0,0c-0.0328,-0.04796 -0.06168,-0.09849 -0.08634,-0.15109c-0.11871,-0.21584 0.05396,0.03238 0,0c-0.05396,-0.03238 -0.17267,-0.18347 -0.17267,-0.18347c-0.05542,-0.04101 -0.1061,-0.08806 -0.15109,-0.1403c-0.1403,-0.11871 0.1295,0.07554 0,0l-0.45327,-0.2698l-0.2698,-0.1403c-0.08634,0 -0.28059,-0.08634 -0.08634,0l-0.5504,-0.19426c-0.18803,-0.05692 -0.37895,-0.10375 -0.57198,-0.1403h-0.22663h-0.15109c-0.22634,-0.01618 -0.45356,-0.01618 -0.6799,0h-0.25901c-0.09713,0 -0.29139,0 -0.09713,0c-0.18221,0.02801 -0.36245,0.06766 -0.5396,0.11871l-0.28059,0.07554l-0.16188,0.06475h-0.09713l-0.21584,0.1295l-0.17267,0.10792c0.22663,-0.16188 0.02158,-0.02158 0,0c-0.02158,0.02158 -0.15109,0.16188 -0.15109,0.16188l0.09713,-0.1295v0.06475c0,0.11871 0,0 0,0c0,0 0,-0.06475 0,0c0,0.06475 0,0.1295 0,0.19426c-0.17535,0.68005 -0.85716,1.09964 -1.54327,0.9497z" fill="#0c0607" stroke="none" stroke-width="1" stroke-linecap="butt" stroke-linejoin="miter"/><path d="M236.07992,166.76482c0,-3.45101 1.87956,-6.24861 4.19812,-6.24861c2.31856,0 4.19812,2.7976 4.19812,6.24861c0,3.45101 -1.87956,6.24861 -4.19812,6.24861c-2.31856,0 -4.19812,-2.7976 -4.19812,-6.24861z" fill="#ffffff" stroke="#0c0607" stroke-width="2.4" stroke-linecap="butt" stroke-linejoin="miter"/><path d="M240.27803,166.76482c0,-1.46623 0.67161,-2.65485 1.5001,-2.65485c0.82849,0 1.5001,1.18862 1.5001,2.65485c0,1.46623 -0.67161,2.65485 -1.5001,2.65485c-0.82849,0 -1.5001,-1.18862 -1.5001,-2.65485z" fill="#0a0000" stroke="#0c0607" stroke-width="2.4" stroke-linecap="butt" stroke-linejoin="miter"/><path d="M251.55575,166.76482c0,-3.45101 1.87956,-6.24861 4.19812,-6.24861c2.31856,0 4.19812,2.7976 4.19812,6.24861c0,3.45101 -1.87956,6.24861 -4.19812,6.24861c-2.31856,0 -4.19812,-2.7976 -4.19812,-6.24861z" fill="#ffffff" stroke="#0c0607" stroke-width="2.4" stroke-linecap="butt" stroke-linejoin="miter"/><path d="M255.75386,166.76482c0,-1.46623 0.67161,-2.65485 1.5001,-2.65485c0.82849,0 1.5001,1.18862 1.5001,2.65485c0,1.46623 -0.67161,2.65485 -1.5001,2.65485c-0.82849,0 -1.5001,-1.18862 -1.5001,-2.65485z" fill="#0a0000" stroke="#0c0607" stroke-width="2.4" stroke-linecap="butt" stroke-linejoin="miter"/><path d="M258.72168,168.24334l-0.56119,-0.52881l-0.74465,0.19426l0.31297,-0.72307l-0.39931,-0.66911l0.76624,0.08634l0.50723,-0.60436l0.15109,0.76624l0.70148,0.30218l-0.66911,0.38851z" fill="#989898" stroke="none" stroke-width="1" stroke-linecap="butt" stroke-linejoin="miter"/><path d="M244.12001,168.41601l-0.56119,-0.52881l-0.75544,0.19426l0.32376,-0.72307l-0.39931,-0.66911l0.76624,0.08634l0.50723,-0.60436l0.15109,0.76624l0.70148,0.30218l-0.66911,0.39931z" fill="#989898" stroke="none" stroke-width="1" stroke-linecap="butt" stroke-linejoin="miter"/><path d="M233.37111,139.3098c-0.08003,1.80219 -1.27227,3.36458 -2.9894,3.91752c-2.73039,0.63673 -4.81326,-2.08287 -7.04722,-3.6801c-2.79515,-2.00733 -6.3997,-2.43901 -9.84237,-2.43901c-2.32161,0.14129 -4.65167,0.03274 -6.95009,-0.32376c-1.57564,-0.34535 -4.58663,-1.39218 -5.47158,-3.92831c-0.80941,-2.33109 0.45327,-5.27732 3.07574,-7.43574v0c2.20158,-2.55772 5.95722,-3.23762 9.32435,-2.97861c7.77917,0.59988 14.74051,5.05708 18.54078,11.87128c0.91706,1.5033 1.38859,3.23602 1.3598,4.99673z" fill="#c56792" stroke="#0a0000" stroke-width="2.4" stroke-linecap="square" stroke-linejoin="bevel"/><path d="M234.81823,177.49284c-0.37021,0.36734 -0.96298,0.38124 -1.35,0.03167c-0.60594,-0.62739 -1.25505,-1.21158 -1.94257,-1.74832l0.20505,0.16188c-0.36693,-0.2698 -0.72307,-0.52881 -1.07921,-0.76624c-0.45526,-0.27553 -0.61234,-0.86101 -0.35614,-1.32742c0.2717,-0.46125 0.86538,-0.61571 1.32742,-0.34535c1.16952,0.7646 2.25477,1.6509 3.23762,2.64406c0.34654,0.38973 0.32802,0.98237 -0.04218,1.34971z" fill="#363636" stroke="none" stroke-width="1" stroke-linecap="butt" stroke-linejoin="miter"/><path d="M233.14447,177.76194c0.53643,0 0.97129,0.43486 0.97129,0.97129c-0.01144,0.53162 -0.43967,0.95985 -0.97129,0.97129c-1.28279,0.06158 -2.56746,-0.07307 -3.8096,-0.39931c-0.35653,-0.07182 -0.64305,-0.3368 -0.74247,-0.68663c-0.09943,-0.34984 0.00492,-0.7259 0.27037,-0.97448c0.26546,-0.2486 0.64756,-0.32806 0.99012,-0.20591c0.28038,0.07768 0.56505,0.13895 0.85257,0.18347c0.15423,0.04615 0.31392,0.07155 0.47485,0.07554v0h0.19426c0.58536,0.0485 1.17375,0.0485 1.75911,0z" fill="#363636" stroke="none" stroke-width="1" stroke-linecap="butt" stroke-linejoin="miter"/><path d="M232.51853,180.10382c0.22433,-0.1333 0.49363,-0.16843 0.74465,-0.09713c0.24635,0.0685 0.45575,0.23136 0.58277,0.45327c0.10393,0.21496 0.12691,0.46016 0.06475,0.69069c-0.07512,0.23985 -0.23162,0.44597 -0.44247,0.58277c-0.61153,0.42714 -1.26626,0.78886 -1.95336,1.07921c-0.14752,0.08551 -0.31514,0.13021 -0.48564,0.1295h-0.25901c-0.24503,-0.06482 -0.45451,-0.22387 -0.58277,-0.44247c-0.12927,-0.22964 -0.1641,-0.50057 -0.09713,-0.75544c0.06521,-0.24209 0.22453,-0.44804 0.44247,-0.57198c0.68495,-0.29477 1.33923,-0.65626 1.95336,-1.07921z" fill="#363636" stroke="none" stroke-width="1" stroke-linecap="butt" stroke-linejoin="miter"/></g></g></svg>