<svg version="1.1" xmlns="http://www.w3.org/2000/svg" xmlns:xlink="http://www.w3.org/1999/xlink" width="79.69596" height="119.97627" viewBox="0,0,79.69596,119.97627"><defs><clipPath id="clip-1"><path d="M212.80973,227.09402h-1.21772"/></clipPath><clipPath id="clip-2"><g clip-path="url(#clip-1)"><path d="M212.78818,228.6458c-0.41628,0.18365 -0.87858,0.23627 -1.32548,0.15087"/></g></clipPath><clipPath id="clip-3"><g clip-path="url(#clip-2)"><path d="M212.41101,230.26225c-0.42089,0.13237 -0.87227,0.13237 -1.29315,0"/></g></clipPath><clipPath id="clip-4"><g clip-path="url(#clip-3)"><path d="M212.17393,232.44983l-1.19617,-0.26941"/></g></clipPath><clipPath id="clip-5"><g clip-path="url(#clip-4)"><path d="M212.3248,233.89385c-0.49666,0.07327 -1.00366,-0.01754 -1.44402,-0.25863"/></g></clipPath><clipPath id="clip-6"><g clip-path="url(#clip-5)"><path d="M212.62653,235.44564c-0.62025,-0.0213 -1.23895,-0.07525 -1.85352,-0.16164"/></g></clipPath><clipPath id="clip-7"><g clip-path="url(#clip-6)"><path d="M212.38946,236.74957c-0.26551,0.06487 -0.54272,0.06487 -0.80822,0"/></g></clipPath><clipPath id="clip-8"><g clip-path="url(#clip-7)"><path d="M216.80774,230.42389"/></g></clipPath><clipPath id="clip-9"><g clip-path="url(#clip-8)" fill="none" stroke="none" stroke-width="1"><path d="M216.5491,229.17384"/></g></clipPath><clipPath id="clip-10"><path d="M268.2753,230.21914c-0.47416,-1.89663 0.65735,-4.69846 2.48932,-6.88605c0.84378,-1.15677 2.03792,-2.0108 3.40531,-2.43544c0.68712,-0.09559 1.38135,0.11742 1.89663,0.58192c0.35539,0.28094 0.62738,0.65353 0.78667,1.07763c0.34484,1.07763 -0.1832,2.64019 -1.07763,4.03033c-0.94811,1.38255 -2.03104,2.66764 -3.23289,3.83636l-5.94851,6.30413c-0.20461,0.25495 -0.45723,0.4673 -0.74356,0.62502c-0.32771,0.14193 -0.70642,0.09665 -0.99142,-0.11854c-0.53881,-0.32329 -1.07763,-0.8621 -0.67891,-1.70265c0.16136,-0.28763 0.36073,-0.55223 0.5927,-0.78667c1.50868,-1.64877 3.3191,-3.45919 3.66394,-5.29116"/></clipPath><clipPath id="clip-11"><g clip-path="url(#clip-10)"><path d="M273.01687,228.32251c-1.52633,-0.40212 -2.63238,-1.7242 -2.75873,-3.29754"/></g></clipPath><clipPath id="clip-12"><g clip-path="url(#clip-11)"><path d="M272.40262,227.50351c1.06594,-1.44843 2.34482,-2.72732 3.79325,-3.79325"/></g></clipPath><clipPath id="clip-13"><g clip-path="url(#clip-12)"><path d="M271.58362,226.71685c1.12878,-1.68079 2.49337,-3.19055 4.05189,-4.48294"/></g></clipPath><clipPath id="clip-14"><g clip-path="url(#clip-13)"><path d="M270.60298,225.88707c1.11948,-1.69119 2.48516,-3.20578 4.05189,-4.49371"/></g></clipPath><clipPath id="clip-15"><g clip-path="url(#clip-14)"><path d="M276.52994,222.01838l1.84275,1.69188c0.16736,0.13429 0.30342,0.30346 0.39872,0.49571c0.07005,0.23924 0.07005,0.49354 0,0.73279c-0.33407,2.01517 -1.71343,3.67472 -3.03891,5.2265l-7.5434,8.7288c-0.11732,0.16291 -0.2778,0.28981 -0.46338,0.36639c-0.17842,0.05917 -0.37117,0.05917 -0.54959,0c-0.82196,-0.25061 -1.53561,-0.77067 -2.02594,-1.47635"/></g></clipPath><clipPath id="clip-16"><g clip-path="url(#clip-15)"><path d="M268.66325,237.81642c-0.49163,-0.0963 -0.94036,-0.34519 -1.28238,-0.71124"/></g></clipPath><clipPath id="clip-17"><g clip-path="url(#clip-16)"><path d="M269.80553,236.39395c-0.48851,-0.06085 -0.91978,-0.34837 -1.16384,-0.77589"/></g></clipPath><clipPath id="clip-18"><g clip-path="url(#clip-17)"><path d="M271.01248,234.61587c-0.46738,0.06874 -0.91834,-0.20183 -1.07763,-0.64658"/></g></clipPath><clipPath id="clip-19"><g clip-path="url(#clip-18)"><path d="M271.50819,232.69769l0.98064,0.71124"/></g></clipPath><clipPath id="clip-20"><g clip-path="url(#clip-19)"><path d="M272.33796,231.41531c0.44966,0.07835 0.86595,0.28837 1.19617,0.60347"/></g></clipPath><clipPath id="clip-21"><g clip-path="url(#clip-20)"><path d="M273.55568,230.27302c0.42483,0.1243 0.80109,0.37639 1.07763,0.72201"/></g></clipPath><clipPath id="clip-22"><g clip-path="url(#clip-21)"><path d="M275.80793,229.47558l-0.84055,-0.89443"/></g></clipPath><clipPath id="clip-23"><g clip-path="url(#clip-22)"><path d="M275.63551,227.29877c0.47045,0.22741 0.85022,0.60718 1.07763,1.07763"/></g></clipPath><clipPath id="clip-24"><g clip-path="url(#clip-23)"><path d="M276.24975,225.84397c0.50864,0.35734 0.99452,0.74604 1.4548,1.16384"/></g></clipPath><clipPath id="clip-25"><g clip-path="url(#clip-24)"><path d="M277.16574,224.88488c0.25655,0.10354 0.4827,0.27037 0.65735,0.48493"/></g></clipPath><clipPath id="clip-26"><g clip-path="url(#clip-25)"><path d="M269.97795,227.71904"/></g></clipPath><clipPath id="clip-27"><g clip-path="url(#clip-26)" fill="none" stroke="none" stroke-width="1"><path d="M269.5038,228.89366"/></g></clipPath><clipPath id="clip-28"><path d="M236.52835,201.04772l19.65595,2.43544c1.07307,3.2657 1.69311,6.66316 1.84275,10.09738c0.09699,2.53243 0,7.22011 0,7.22011c0.8921,0.94059 1.56549,2.06658 1.97206,3.29754c0.38795,1.31471 0,1.67033 0.48493,2.64019c0.48493,0.96987 1.07763,0.91598 1.69188,1.65955c1.25005,1.41169 0.62502,2.9096 1.20694,4.52604c0.42028,1.15306 1.51946,2.58631 4.5907,3.71782l-10.56076,2.59709l-6.0886,0.60347c-3.35319,-2.59965 -5.87087,-6.12514 -7.24167,-10.14049c-0.46818,-1.43001 -0.77187,-2.90873 -0.90521,-4.4075c-3.05325,0.74032 -6.27538,-0.06521 -8.62103,-2.15526" fill="none" stroke="none" stroke-width="1"/></clipPath></defs><g transform="translate(-199.56184,-119.86609)"><g data-paper-data="{&quot;isPaintingLayer&quot;:true}" fill-rule="nonzero" stroke-miterlimit="10" stroke-dasharray="" stroke-dashoffset="0" style="mix-blend-mode: normal"><path d="M257.90851,199.6037c1.95051,0 3.62083,1.40092 5.2265,2.55398c1.60567,1.15306 3.66394,2.15526 5.4528,1.46558c0.71156,-0.44993 1.46166,-0.8358 2.24147,-1.15306c0.77971,-0.08093 1.55826,0.16345 2.15186,0.67546c0.59359,0.512 0.94963,1.24625 0.98404,2.02939c-0.04767,1.57863 -1.00591,2.98657 -2.45699,3.61006c-1.92703,0.79287 -4.05819,0.94401 -6.07783,0.43105c-3.63216,-0.68686 -7.07073,-2.1579 -10.07583,-4.31052c-1.39014,-1.0022 -2.82339,-2.57553 -2.3169,-4.15965c0.48293,-1.10986 1.63066,-1.77755 2.83416,-1.64877c1.201,0.15101 2.3377,0.62805 3.28677,1.37937" fill="#e4bdd0" stroke="#0a0000" stroke-width="2.4" stroke-linecap="butt" stroke-linejoin="miter"/><path d="M256.31362,208.61268c1.36859,7.82359 -4.31052,10.77629 -14.51566,10.6362c-10.20515,-0.14009 -13.19018,-4.46138 -10.85172,-12.20954c2.33846,-7.74815 7.16623,-11.85392 13.69667,-11.78926c6.53043,0.06466 10.31291,5.52824 11.67072,13.3626z" fill="#e4bdd0" stroke="#0a0000" stroke-width="1.91" stroke-linecap="butt" stroke-linejoin="miter"/><path d="M249.25515,198.12735c1.88265,-0.56154 3.72287,-1.25658 5.50668,-2.07982c1.08841,4.94632 1.91818,6.72441 3.45919,12.11255c-1.90558,0.25984 -3.78686,0.67429 -5.62522,1.23927c-1.05608,-4.61225 -1.85352,-6.18559 -3.34065,-11.272z" fill="#384998" stroke="#0c0607" stroke-width="0.8" stroke-linecap="butt" stroke-linejoin="miter"/><path d="M254.07215,197.54543c-0.25863,0.12932 -0.30174,-0.11854 0,-0.23708c0.30174,-0.11854 0.31251,0.10776 0,0.23708z" fill="#ffffff" stroke="none" stroke-width="1" stroke-linecap="butt" stroke-linejoin="miter"/><path d="M254.32,198.70927c-0.10776,-0.51726 -0.17242,-0.77589 -0.26941,-1.33626" fill="none" stroke="#ffffff" stroke-width="0.4" stroke-linecap="butt" stroke-linejoin="miter"/><path d="M254.84804,200.63822c-0.13615,-0.38134 -0.25127,-0.76988 -0.34484,-1.16384" fill="none" stroke="#ffffff" stroke-width="0.4" stroke-linecap="butt" stroke-linejoin="miter"/><path d="M255.50539,202.54563l-0.37717,-1.07763" fill="none" stroke="#ffffff" stroke-width="0.4" stroke-linecap="butt" stroke-linejoin="miter"/><path d="M255.82868,203.40773c0.1832,0.51726 0.29096,0.79745 0.49571,1.40092" fill="none" stroke="#ffffff" stroke-width="0.4" stroke-linecap="butt" stroke-linejoin="miter"/><path d="M256.57225,205.57376c0.16164,0.49571 0.24785,0.75434 0.4095,1.28238" fill="none" stroke="#ffffff" stroke-width="0.4" stroke-linecap="butt" stroke-linejoin="miter"/><path d="M250.83926,200.50891c-0.19397,-0.57114 -0.28018,-0.8621 -0.47416,-1.48713" fill="none" stroke="#ffffff" stroke-width="0.4" stroke-linecap="butt" stroke-linejoin="miter"/><path d="M251.56127,202.56718l-0.43105,-1.21772" fill="none" stroke="#ffffff" stroke-width="0.4" stroke-linecap="butt" stroke-linejoin="miter"/><path d="M251.86301,203.36462l0.35562,0.99142" fill="none" stroke="#ffffff" stroke-width="0.4" stroke-linecap="butt" stroke-linejoin="miter"/><path d="M252.43415,204.94874c0.11854,0.33407 0.1832,0.50649 0.28018,0.84055" fill="none" stroke="#ffffff" stroke-width="0.4" stroke-linecap="butt" stroke-linejoin="miter"/><path d="M253.13461,207.52427l-0.16164,-0.72201" fill="none" stroke="#ffffff" stroke-width="0.4" stroke-linecap="butt" stroke-linejoin="miter"/><path d="M256.02266,184.84018c-0.38425,0.33644 -0.96356,0.31723 -1.3247,-0.04389c-0.36114,-0.36114 -0.38033,-0.94045 -0.04389,-1.3247c0.97845,-0.99811 2.06244,-1.88698 3.23289,-2.65097c0.46221,-0.26374 1.05041,-0.11072 1.32548,0.34484c0.26997,0.46137 0.11574,1.05418 -0.34484,1.32548c-0.38795,0.24785 -0.73279,0.49571 -1.07763,0.76512l0.19397,-0.15087c-0.68892,0.52917 -1.33731,1.10912 -1.93973,1.73498z" fill="#363636" stroke="none" stroke-width="1" stroke-linecap="butt" stroke-linejoin="miter"/><path d="M254.15836,186.8769c-0.52853,-0.01679 -0.95308,-0.44133 -0.96987,-0.96987c0,-0.53565 0.43422,-0.96987 0.96987,-0.96987c0.9441,0.04854 1.89006,0.04854 2.83416,0c0.53881,-0.03233 1.07763,-0.06466 1.61644,-0.12932h0.35562c0.17242,0 -0.1832,0 0,0h0.17242l0.51726,-0.10776c0.52969,-0.1607 1.08935,0.13844 1.25005,0.66813c0.1607,0.52969 -0.13844,1.08935 -0.66813,1.25005c-1.00693,0.21164 -2.03169,0.3271 -3.06047,0.34484c-0.96912,0.05386 -1.94048,0.05386 -2.9096,0z" fill="#363636" stroke="none" stroke-width="1" stroke-linecap="butt" stroke-linejoin="miter"/><path d="M256.06576,189.11837c-0.14274,-0.08331 -0.26153,-0.2021 -0.34484,-0.34484l-0.10776,-0.23708c-0.06186,-0.25246 -0.02322,-0.51906 0.10776,-0.74356c0.12375,-0.21763 0.32941,-0.37672 0.57114,-0.44183c0.25417,-0.07172 0.52658,-0.03669 0.75434,0.09699c0.6069,0.4264 1.25708,0.78761 1.93973,1.07763c0.22318,0.12499 0.38639,0.33484 0.4526,0.58192c0.06511,0.25107 0.03035,0.5176 -0.09699,0.74356c-0.12808,0.21828 -0.33724,0.37711 -0.58192,0.44183c-0.12657,0.03774 -0.26138,0.03774 -0.38795,0c-0.13112,-0.00269 -0.25854,-0.04392 -0.36639,-0.11854c-0.68266,-0.29002 -1.33283,-0.65123 -1.93973,-1.07763z" fill="#363636" stroke="none" stroke-width="1" stroke-linecap="butt" stroke-linejoin="miter"/><path d="M228.48923,230.0575c-0.52804,0.39872 -1.32548,0.76512 -5.8623,0.43105c-1.9074,-0.14009 -3.46997,-0.32329 -4.53682,-0.47416c0.07349,0.9114 0.21762,1.81574 0.43105,2.70485c0.21861,0.88953 0.05863,1.82989 -0.44183,2.59709c-0.67891,0.76512 -1.72421,0.43105 -2.53243,0c-0.61907,-0.31416 -1.09363,-0.85432 -1.32548,-1.50868c-0.10297,-0.44477 -0.1357,-0.90292 -0.09699,-1.35781l0.38795,-10.30213c-0.03633,-0.37658 0.05065,-0.75476 0.24785,-1.07763c0.34484,-0.39872 0.87288,-0.12932 1.28238,0.11854c1.82059,1.11197 4.03407,1.37931 6.06705,0.73279c1.25005,-0.4095 2.43544,-1.15306 3.69627,-1.4979c1.28882,-0.27441 2.63187,0.06833 3.63161,0.92676c1.17462,1.18539 0.94831,3.02814 0.76512,4.48294c-0.1832,1.4548 -0.39872,3.21133 -1.71343,4.22431z" fill="#e4bdd0" stroke="#0a0000" stroke-width="2.4" stroke-linecap="round" stroke-linejoin="round"/><path d="M216.87239,227.36342c1.44402,1.31471 2.05827,4.31052 1.74576,7.11235c-0.06859,1.43047 -0.59354,2.80136 -1.4979,3.91179c-0.51187,0.46175 -1.20489,0.66768 -1.88585,0.56037c-0.45048,-0.03258 -0.88314,-0.18923 -1.25005,-0.4526c-0.88366,-0.70046 -1.32548,-2.30613 -1.36859,-3.93335c0.00252,-1.6657 0.17585,-3.32676 0.51726,-4.95709l1.4548,-8.55637c0.03573,-0.32214 0.12688,-0.63567 0.26941,-0.92676c0.19536,-0.29926 0.53805,-0.46853 0.89443,-0.44183c0.62502,0 1.40092,0.09699 1.51946,1.07763c0.02107,0.3283 -0.00067,0.65795 -0.06466,0.98064c-0.34484,2.15526 -0.85133,4.72002 -0.11854,6.46577" fill="#ffffff" stroke="none" stroke-width="1" stroke-linecap="butt" stroke-linejoin="miter"/><path d="M213.93047,231.58773c1.49468,-0.51586 3.15204,-0.02688 4.12732,1.21772" fill="#ffffff" stroke="none" stroke-width="1" stroke-linecap="butt" stroke-linejoin="miter"/><path d="M214.91111,231.93257c-0.08883,1.79766 -0.45225,3.57112 -1.07763,5.25883" fill="#ffffff" stroke="none" stroke-width="1" stroke-linecap="butt" stroke-linejoin="miter"/><path d="M216.02107,232.12654c-0.00727,2.02913 -0.30485,4.04678 -0.88366,5.99162" fill="#ffffff" stroke="none" stroke-width="1" stroke-linecap="butt" stroke-linejoin="miter"/><path d="M217.30344,232.28819c-0.00275,2.02593 -0.30042,4.04068 -0.88366,5.98084" fill="#ffffff" stroke="none" stroke-width="1" stroke-linecap="butt" stroke-linejoin="miter"/><path d="M214.51239,238.78629l-2.46777,-0.38795c-0.2166,-0.01831 -0.42642,-0.08456 -0.61425,-0.19397c-0.19966,-0.1525 -0.35271,-0.35779 -0.44183,-0.5927c-0.82977,-1.8643 -0.60347,-4.00878 -0.35562,-6.03472l1.39014,-11.40132c0.00961,-0.20321 0.07282,-0.40025 0.1832,-0.57114c0.13234,-0.13461 0.30072,-0.22814 0.48493,-0.26941c0.82622,-0.23962 1.70823,-0.20178 2.51088,0.10776" fill="#ffffff" stroke="none" stroke-width="1" stroke-linecap="butt" stroke-linejoin="miter"/><path d="M212.29247,221.27482c0.46362,-0.19383 0.97684,-0.23534 1.46558,-0.11854" fill="#ffffff" stroke="none" stroke-width="1" stroke-linecap="butt" stroke-linejoin="miter"/><path d="M212.1416,223.09601c0.43705,-0.22088 0.95309,-0.22088 1.39014,0" fill="#ffffff" stroke="none" stroke-width="1" stroke-linecap="butt" stroke-linejoin="miter"/><path d="M212.1416,225.18661c0.3573,-0.29241 0.8712,-0.29241 1.2285,0" fill="#ffffff" stroke="none" stroke-width="1" stroke-linecap="butt" stroke-linejoin="miter"/><path d="M212.80973,227.09402h-1.21772" fill="#ffffff" stroke="none" stroke-width="1" stroke-linecap="butt" stroke-linejoin="miter"/><path d="M212.78818,228.6458c-0.41628,0.18365 -0.87858,0.23627 -1.32548,0.15087" fill="#ffffff" stroke="none" stroke-width="1" stroke-linecap="butt" stroke-linejoin="miter"/><path d="M212.41101,230.26225c-0.42089,0.13237 -0.87227,0.13237 -1.29315,0" fill="#ffffff" stroke="none" stroke-width="1" stroke-linecap="butt" stroke-linejoin="miter"/><path d="M212.17393,232.44983l-1.19617,-0.26941" fill="#ffffff" stroke="none" stroke-width="1" stroke-linecap="butt" stroke-linejoin="miter"/><path d="M212.3248,233.89385c-0.49666,0.07327 -1.00366,-0.01754 -1.44402,-0.25863" fill="#ffffff" stroke="none" stroke-width="1" stroke-linecap="butt" stroke-linejoin="miter"/><path d="M212.62653,235.44564c-0.62025,-0.0213 -1.23895,-0.07525 -1.85352,-0.16164" fill="#ffffff" stroke="none" stroke-width="1" stroke-linecap="butt" stroke-linejoin="miter"/><path d="M212.38946,236.74957c-0.26551,0.06487 -0.54272,0.06487 -0.80822,0" fill="#ffffff" stroke="none" stroke-width="1" stroke-linecap="butt" stroke-linejoin="miter"/><path d="M216.80774,230.42389" fill="#ffffff" stroke="none" stroke-width="1" stroke-linecap="butt" stroke-linejoin="miter"/><path d="M216.5491,229.17384" fill="#ffffff" stroke="none" stroke-width="1" stroke-linecap="butt" stroke-linejoin="miter"/><g clip-path="url(#clip-9)" stroke-linecap="butt" stroke-linejoin="miter"><path d="M222.74846,241.08215l-13.14488,1.09225l-2.09438,-25.20509l13.14488,-1.09225z" fill="#ffffff" stroke="#0a0000" stroke-width="0.4"/></g><path d="M216.87239,227.36342c1.44402,1.31471 2.05827,4.31052 1.74576,7.11235c-0.06859,1.43047 -0.59354,2.80136 -1.4979,3.91179c-0.51187,0.46175 -1.20489,0.66768 -1.88585,0.56037c-0.45048,-0.03258 -0.88314,-0.18923 -1.25005,-0.4526c-0.88366,-0.70046 -1.32548,-2.30613 -1.36859,-3.93335c0.00252,-1.6657 0.17585,-3.32676 0.51726,-4.95709l1.4548,-8.55637c0.03573,-0.32214 0.12688,-0.63567 0.26941,-0.92676c0.19536,-0.29926 0.53805,-0.46853 0.89443,-0.44183c0.62502,0 1.40092,0.09699 1.51946,1.07763c0.02107,0.3283 -0.00067,0.65795 -0.06466,0.98064c-0.34484,2.15526 -0.85133,4.72002 -0.11854,6.46577" fill="none" stroke="#0a0000" stroke-width="0.4" stroke-linecap="butt" stroke-linejoin="miter"/><path d="M213.93047,231.58773c1.49468,-0.51586 3.15204,-0.02688 4.12732,1.21772" fill="none" stroke="#0a0000" stroke-width="0.4" stroke-linecap="butt" stroke-linejoin="miter"/><path d="M214.91111,231.93257c-0.08883,1.79766 -0.45225,3.57112 -1.07763,5.25883" fill="none" stroke="#0a0000" stroke-width="0.4" stroke-linecap="butt" stroke-linejoin="miter"/><path d="M216.02107,232.12654c-0.00727,2.02913 -0.30485,4.04678 -0.88366,5.99162" fill="none" stroke="#0a0000" stroke-width="0.4" stroke-linecap="butt" stroke-linejoin="miter"/><path d="M217.30344,232.28819c-0.00275,2.02593 -0.30042,4.04068 -0.88366,5.98084" fill="none" stroke="#0a0000" stroke-width="0.4" stroke-linecap="butt" stroke-linejoin="miter"/><path d="M214.51239,238.78629l-2.46777,-0.38795c-0.2166,-0.01831 -0.42642,-0.08456 -0.61425,-0.19397c-0.19966,-0.1525 -0.35271,-0.35779 -0.44183,-0.5927c-0.82977,-1.8643 -0.60347,-4.00878 -0.35562,-6.03472l1.39014,-11.40132c0.00961,-0.20321 0.07282,-0.40025 0.1832,-0.57114c0.13234,-0.13461 0.30072,-0.22814 0.48493,-0.26941c0.82622,-0.23962 1.70823,-0.20178 2.51088,0.10776" fill="none" stroke="#0a0000" stroke-width="0.4" stroke-linecap="butt" stroke-linejoin="miter"/><path d="M212.29247,221.27482c0.46362,-0.19383 0.97684,-0.23534 1.46558,-0.11854" fill="none" stroke="#0a0000" stroke-width="0.4" stroke-linecap="butt" stroke-linejoin="miter"/><path d="M212.1416,223.09601c0.43705,-0.22088 0.95309,-0.22088 1.39014,0" fill="none" stroke="#0a0000" stroke-width="0.4" stroke-linecap="butt" stroke-linejoin="miter"/><path d="M212.1416,225.18661c0.3573,-0.29241 0.8712,-0.29241 1.2285,0" fill="none" stroke="#0a0000" stroke-width="0.4" stroke-linecap="butt" stroke-linejoin="miter"/><path d="M212.80973,227.09402h-1.21772" fill="none" stroke="#0a0000" stroke-width="0.4" stroke-linecap="butt" stroke-linejoin="miter"/><path d="M212.78818,228.6458c-0.41628,0.18365 -0.87858,0.23627 -1.32548,0.15087" fill="none" stroke="#0a0000" stroke-width="0.4" stroke-linecap="butt" stroke-linejoin="miter"/><path d="M212.41101,230.26225c-0.42089,0.13237 -0.87227,0.13237 -1.29315,0" fill="none" stroke="#0a0000" stroke-width="0.4" stroke-linecap="butt" stroke-linejoin="miter"/><path d="M212.17393,232.44983l-1.19617,-0.26941" fill="none" stroke="#0a0000" stroke-width="0.4" stroke-linecap="butt" stroke-linejoin="miter"/><path d="M212.3248,233.89385c-0.49666,0.07327 -1.00366,-0.01754 -1.44402,-0.25863" fill="none" stroke="#0a0000" stroke-width="0.4" stroke-linecap="butt" stroke-linejoin="miter"/><path d="M212.62653,235.44564c-0.62025,-0.0213 -1.23895,-0.07525 -1.85352,-0.16164" fill="none" stroke="#0a0000" stroke-width="0.4" stroke-linecap="butt" stroke-linejoin="miter"/><path d="M212.38946,236.74957c-0.26551,0.06487 -0.54272,0.06487 -0.80822,0" fill="none" stroke="#0a0000" stroke-width="0.4" stroke-linecap="butt" stroke-linejoin="miter"/><path d="M216.80774,230.42389" fill="none" stroke="#0a0000" stroke-width="0.4" stroke-linecap="butt" stroke-linejoin="miter"/><path d="M216.5491,229.17384" fill="none" stroke="#0a0000" stroke-width="0.4" stroke-linecap="butt" stroke-linejoin="miter"/><path d="M216.87239,227.36342c1.44402,1.31471 2.05827,4.31052 1.74576,7.11235c-0.06859,1.43047 -0.59354,2.80136 -1.4979,3.91179c-0.51187,0.46175 -1.20489,0.66768 -1.88585,0.56037c-0.45048,-0.03258 -0.88314,-0.18923 -1.25005,-0.4526c-0.88366,-0.70046 -1.32548,-2.30613 -1.36859,-3.93335c0.00252,-1.6657 0.17585,-3.32676 0.51726,-4.95709l1.4548,-8.55637c0.03573,-0.32214 0.12688,-0.63567 0.26941,-0.92676c0.19536,-0.29926 0.53805,-0.46853 0.89443,-0.44183c0.62502,0 1.40092,0.09699 1.51946,1.07763c0.02107,0.3283 -0.00067,0.65795 -0.06466,0.98064c-0.34484,2.15526 -0.85133,4.72002 -0.11854,6.46577" fill="#ffffff" stroke="#0c0607" stroke-width="1.6" stroke-linecap="butt" stroke-linejoin="miter"/><path d="M218.47806,232.33129c0.17446,0.30748 0.07447,0.69787 -0.2263,0.88366c-0.31073,0.17557 -0.70459,0.07592 -0.89443,-0.2263v0l-0.07543,-0.08621c-0.05558,-0.06632 -0.11688,-0.12761 -0.1832,-0.1832l-0.20475,-0.17242c0.12932,0.09699 0,0 0,0l-0.11854,-0.07543c-0.14009,-0.09699 -0.37717,-0.25863 -0.4526,-0.25863c-0.07543,0 0.06466,0 0,0h-0.11854l-0.24785,-0.07543l-0.28018,-0.07543h-0.11854h-0.54959h-0.25863c-0.15087,0 0.10776,0 0,0h-0.14009c-0.17145,0.03666 -0.34057,0.08343 -0.50649,0.14009c-0.34453,0.09003 -0.6981,-0.11065 -0.79745,-0.4526c-0.07854,-0.34293 0.1179,-0.68906 0.4526,-0.79745c1.78057,-0.5832 3.73485,0.03211 4.86011,1.53023z" fill="#0c0607" stroke="none" stroke-width="1" stroke-linecap="butt" stroke-linejoin="miter"/><path d="M214.56627,231.88946c0,-0.17855 0.14474,-0.32329 0.32329,-0.32329c0.17855,0 0.32329,0.14474 0.32329,0.32329c-0.08464,1.84021 -0.44798,3.65693 -1.07763,5.38815c-0.14009,0.38795 -0.76512,0.21553 -0.62502,-0.17242c0.62037,-1.65931 0.98377,-3.40362 1.07763,-5.17262z" fill="#0c0607" stroke="none" stroke-width="1" stroke-linecap="butt" stroke-linejoin="miter"/><path d="M216.02107,231.80325c0.17855,0 0.32329,0.14474 0.32329,0.32329c-0.01092,2.05792 -0.31203,4.10401 -0.89443,6.07783c-0.04761,0.17259 -0.22613,0.27391 -0.39872,0.2263c-0.17259,-0.04761 -0.27391,-0.22613 -0.2263,-0.39872c0.56993,-1.91703 0.86384,-3.90548 0.87288,-5.90541c0,-0.17855 0.14474,-0.32329 0.32329,-0.32329z" fill="#0c0607" stroke="none" stroke-width="1" stroke-linecap="butt" stroke-linejoin="miter"/><path d="M217.30344,231.9649c0.17855,0 0.32329,0.14474 0.32329,0.32329c-0.01179,2.05432 -0.31289,4.09674 -0.89443,6.06705c-0.04761,0.17259 -0.22613,0.27391 -0.39872,0.2263c-0.17259,-0.04761 -0.27391,-0.22613 -0.2263,-0.39872c0.56906,-1.91354 0.86297,-3.8983 0.87288,-5.89463c0,-0.17855 0.14474,-0.32329 0.32329,-0.32329z" fill="#0c0607" stroke="none" stroke-width="1" stroke-linecap="butt" stroke-linejoin="miter"/><path d="M214.66325,238.37679c0.61425,0.09699 0.34484,1.03452 -0.25863,0.93754c-0.95909,-0.16164 -2.5001,-0.09699 -3.29754,-0.71124c-0.64981,-0.70577 -1.0312,-1.61729 -1.07763,-2.57553c-0.1653,-2.36201 -0.01672,-4.73551 0.44183,-7.05847l0.98064,-7.99601c0.09699,-0.84055 0.08621,-1.64877 0.98064,-2.00439c0.93178,-0.34492 1.95626,-0.34492 2.88805,0c0.5927,0.20475 0.33407,1.14229 -0.24785,0.93754c-0.46123,-0.17358 -0.95131,-0.2577 -1.44402,-0.24785c-0.90521,0.04311 -1.02375,0.32329 -1.20694,1.26083c-0.1832,0.93754 -0.23708,1.91818 -0.34484,2.85572l-0.70046,5.71143c-0.31912,1.82174 -0.47778,3.66798 -0.47416,5.51746c-0.02906,0.90273 0.18693,1.79648 0.62502,2.58631c0.51726,0.6358 2.34923,0.61425 3.11435,0.73279z" fill="#0a0000" stroke="none" stroke-width="1" stroke-linecap="butt" stroke-linejoin="miter"/><path d="M213.88736,220.59591c0.2551,0.07338 0.40712,0.33467 0.34484,0.5927c-0.07811,0.25662 -0.34274,0.40783 -0.60347,0.34484h-0.24785h0.12932c-0.20418,-0.0216 -0.41007,-0.0216 -0.61425,0h0.12932c-0.20837,0.02201 -0.412,0.07655 -0.60347,0.16164c-0.11764,0.04679 -0.24875,0.04679 -0.36639,0c-0.1093,-0.06512 -0.19009,-0.16899 -0.2263,-0.29096c-0.03068,-0.128 -0.01141,-0.26288 0.05388,-0.37717c0.06374,-0.10833 0.16876,-0.18612 0.29096,-0.21553c0.5438,-0.22157 1.14429,-0.26311 1.71343,-0.11854z" fill="#0a0000" stroke="none" stroke-width="1" stroke-linecap="butt" stroke-linejoin="miter"/><path d="M213.7796,222.63263c0.16664,0.09942 0.25797,0.2886 0.23218,0.48092c-0.0258,0.19232 -0.16376,0.35075 -0.35071,0.40273c-0.12104,0.04856 -0.25613,0.04856 -0.37717,0h-0.09699h0.11854c-0.12102,-0.0507 -0.24763,-0.08688 -0.37717,-0.10776h0.12932c-0.14649,-0.02153 -0.29534,-0.02153 -0.44183,0h0.12932c-0.1264,0.01942 -0.24962,0.05566 -0.36639,0.10776h0.10776h-0.09699c-0.23347,0.12659 -0.52506,0.05134 -0.66813,-0.17242c-0.06654,-0.11127 -0.08577,-0.24455 -0.05337,-0.37009c0.03239,-0.12553 0.11371,-0.23288 0.2258,-0.29804c0.59249,-0.30137 1.29336,-0.30137 1.88585,0z" fill="#0a0000" stroke="none" stroke-width="1" stroke-linecap="butt" stroke-linejoin="miter"/><path d="M213.61795,224.82022c0.07251,0.04016 0.13226,0.09991 0.17242,0.17242v0.11854c0.04791,0.11743 0.04791,0.24896 0,0.36639c-0.13182,0.23099 -0.42507,0.31272 -0.65735,0.1832c-0.06532,-0.05316 -0.13789,-0.0967 -0.21553,-0.12932h0.11854c-0.07549,-0.0329 -0.15534,-0.05468 -0.23708,-0.06466h0.12932c-0.08908,-0.01616 -0.18033,-0.01616 -0.26941,0h0.12932c-0.08845,0.01128 -0.17527,0.03299 -0.25863,0.06466h0.11854c-0.07591,0.02449 -0.14572,0.06491 -0.20475,0.11854l0.09699,-0.07543h-0.05388c-0.19045,0.19045 -0.49923,0.19045 -0.68968,0c-0.19045,-0.19045 -0.19045,-0.49923 0,-0.68968c0.26122,-0.23446 0.59743,-0.36817 0.94831,-0.37717c0.31174,-0.0142 0.61919,0.07689 0.87288,0.25863z" fill="#0a0000" stroke="none" stroke-width="1" stroke-linecap="butt" stroke-linejoin="miter"/><path d="M212.80973,226.69529c0.26782,0 0.48493,0.21711 0.48493,0.48493c-0.01098,0.26314 -0.2218,0.47395 -0.48493,0.48493l-1.21772,-0.05388c-0.26542,-0.00571 -0.47922,-0.21951 -0.48493,-0.48493c0,-0.26782 0.21711,-0.48493 0.48493,-0.48493h1.21772z" fill="#0a0000" stroke="none" stroke-width="1" stroke-linecap="butt" stroke-linejoin="miter"/><path d="M212.57265,228.25785c0.07553,-0.04289 0.161,-0.0652 0.24785,-0.06466h0.12932c0.12014,0.03969 0.22292,0.11963 0.29096,0.2263c0.04856,0.12104 0.04856,0.25613 0,0.37717c-0.03159,0.12118 -0.10881,0.22544 -0.21553,0.29096c-0.13951,0.0615 -0.28363,0.11195 -0.43105,0.15087c-0.1487,0.03912 -0.29994,0.06792 -0.4526,0.08621c-0.27168,0.0379 -0.54732,0.0379 -0.819,0c-0.12476,-0.03507 -0.23028,-0.1186 -0.29304,-0.23198c-0.06276,-0.11338 -0.07754,-0.24715 -0.04103,-0.37149c0.03199,-0.11821 0.10949,-0.21894 0.21553,-0.28018c0.11429,-0.06529 0.24917,-0.08456 0.37717,-0.05388v0c0.20419,0.02151 0.41006,0.02151 0.61425,0h-0.12932c0.2049,-0.02206 0.40497,-0.07662 0.5927,-0.16164h-0.11854v0z" fill="#0a0000" stroke="none" stroke-width="1" stroke-linecap="butt" stroke-linejoin="miter"/><path d="M212.23859,229.77731c0.25889,-0.07141 0.52667,0.08056 0.59808,0.33945c0.07141,0.25889 -0.08056,0.52667 -0.33945,0.59808c-0.50702,0.14551 -1.04476,0.14551 -1.55179,0c-0.18589,-0.02735 -0.33925,-0.15963 -0.3936,-0.33949c-0.05436,-0.17986 0.00009,-0.37493 0.13971,-0.50066c0.13963,-0.12573 0.33932,-0.15948 0.51252,-0.08662l0.34484,0.07543h-0.11854c0.20418,0.0216 0.41007,0.0216 0.61425,0h-0.12932c0.10959,-0.01111 0.21785,-0.03276 0.32329,-0.06466z" fill="#0a0000" stroke="none" stroke-width="1" stroke-linecap="butt" stroke-linejoin="miter"/><path d="M212.35713,231.99723c0.11898,0.03667 0.21931,0.1177 0.28018,0.2263c0.07075,0.10834 0.09045,0.24226 0.05388,0.36639c-0.0331,0.12354 -0.11471,0.22847 -0.2263,0.29096c-0.11838,0.0428 -0.24802,0.0428 -0.36639,0l-1.19617,-0.28018c-0.1222,-0.02941 -0.22722,-0.10719 -0.29096,-0.21553c-0.06636,-0.11392 -0.08569,-0.24922 -0.05388,-0.37717c0.03969,-0.12014 0.11963,-0.22292 0.2263,-0.29096c0.12104,-0.04856 0.25613,-0.04856 0.37717,0l1.14229,0.31251z" fill="#0a0000" stroke="none" stroke-width="1" stroke-linecap="butt" stroke-linejoin="miter"/><path d="M212.19548,233.40892c0.08487,-0.02143 0.17376,-0.02143 0.25863,0h0.11854c0.10672,0.06552 0.18394,0.16978 0.21553,0.29096c0.05348,0.12004 0.05348,0.25713 0,0.37717c-0.06512,0.1093 -0.16899,0.19009 -0.29096,0.2263c-0.16844,0.01604 -0.33804,0.01604 -0.50649,0c-0.16147,0.01065 -0.32346,0.01065 -0.48493,0c-0.2906,-0.05678 -0.57057,-0.15858 -0.82977,-0.30174c-0.22376,-0.14307 -0.29901,-0.43466 -0.17242,-0.66813c0.06516,-0.11208 0.17251,-0.1934 0.29804,-0.2258c0.12553,-0.03239 0.25881,-0.01318 0.37009,0.05337l0.2263,0.10776h-0.11854c0.18772,0.08502 0.3878,0.13959 0.5927,0.16164h-0.12932c0.20058,0.02156 0.40289,0.02156 0.60347,0h-0.10776z" fill="#0a0000" stroke="none" stroke-width="1" stroke-linecap="butt" stroke-linejoin="miter"/><path d="M212.65886,235.05769c0.26782,0 0.48493,0.21711 0.48493,0.48493c-0.00571,0.26542 -0.21951,0.47922 -0.48493,0.48493c-0.66391,-0.02313 -1.32594,-0.08429 -1.98284,-0.1832c-0.2551,-0.07338 -0.40712,-0.33467 -0.34484,-0.5927c0.03715,-0.12148 0.1177,-0.22505 0.2263,-0.29096c0.12104,-0.04856 0.25613,-0.04856 0.37717,0h0.11854c0,0 0.14009,0 0,0c0.07535,0.00522 0.15095,0.00522 0.2263,0h0.43105c0.30174,0 0.60347,0 0.91598,0z" fill="#0a0000" stroke="none" stroke-width="1" stroke-linecap="butt" stroke-linejoin="miter"/><path d="M212.15238,236.34007c0.08487,-0.02143 0.17376,-0.02143 0.25863,0h0.11854c0.10594,0.06399 0.18603,0.16315 0.2263,0.28018c0.04856,0.12104 0.04856,0.25613 0,0.37717c-0.06249,0.11159 -0.16742,0.1932 -0.29096,0.2263c-0.35381,0.08807 -0.72382,0.08807 -1.07763,0c-0.1222,-0.02941 -0.22722,-0.10719 -0.29096,-0.21553c-0.06529,-0.11429 -0.08456,-0.24917 -0.05388,-0.37717c0.03969,-0.12014 0.11963,-0.22292 0.2263,-0.29096c0.12004,-0.05348 0.25713,-0.05348 0.37717,0h0.24785h-0.12932c0.15731,0.02156 0.31684,0.02156 0.47416,0v0z" fill="#0a0000" stroke="none" stroke-width="1" stroke-linecap="butt" stroke-linejoin="miter"/><path d="M216.3228,230.46699c0,-0.26782 0.21711,-0.48493 0.48493,-0.48493c0.26782,0 0.48493,0.21711 0.48493,0.48493c0,0.26782 -0.21711,0.48493 -0.48493,0.48493c-0.26782,0 -0.48493,-0.21711 -0.48493,-0.48493z" fill="#0a0000" stroke="none" stroke-width="1" stroke-linecap="butt" stroke-linejoin="miter"/><path d="M216.06417,229.17384c0,-0.26782 0.21711,-0.48493 0.48493,-0.48493c0.26782,0 0.48493,0.21711 0.48493,0.48493c0,0.26782 -0.21711,0.48493 -0.48493,0.48493c-0.26782,0 -0.48493,-0.21711 -0.48493,-0.48493z" fill="#0a0000" stroke="none" stroke-width="1" stroke-linecap="butt" stroke-linejoin="miter"/><path d="M260.96897,222.20158c3.07179,1.67207 5.81696,3.88427 8.10377,6.53043c0.51319,-0.76151 0.96713,-1.5613 1.35781,-2.39234c0.38284,-0.82913 1.09338,-1.46159 1.96128,-1.74576c1.01297,-0.1832 1.62722,0.73279 1.95051,1.62722c0.28353,0.63263 0.31438,1.34975 0.08621,2.00439c-0.19813,0.39641 -0.4562,0.75989 -0.76512,1.07763l-6.73518,7.81281c-0.20476,0.29899 -0.49904,0.52537 -0.84055,0.64658c-0.50649,0.09699 -0.75434,-0.44183 -0.92676,-0.89443c-0.74511,-1.99309 -2.31743,-3.56541 -4.31052,-4.31052c-1.2285,-0.46338 -2.61864,-0.61425 -3.81481,-1.07763c-1.28998,-0.45016 -2.18267,-1.63191 -2.26302,-2.99581c0.1158,-1.57297 0.90052,-3.02079 2.15526,-3.97645c1.20478,-0.92137 2.60016,-1.56199 4.08421,-1.87507" fill="#e4bdd0" stroke="#0a0000" stroke-width="2.4" stroke-linecap="butt" stroke-linejoin="miter"/><path d="M268.2753,230.21914c-0.47416,-1.89663 0.65735,-4.69846 2.48932,-6.88605c0.84378,-1.15677 2.03792,-2.0108 3.40531,-2.43544c0.68712,-0.09559 1.38135,0.11742 1.89663,0.58192c0.35539,0.28094 0.62738,0.65353 0.78667,1.07763c0.34484,1.07763 -0.1832,2.64019 -1.07763,4.03033c-0.94811,1.38255 -2.03104,2.66764 -3.23289,3.83636l-5.94851,6.30413c-0.20461,0.25495 -0.45723,0.4673 -0.74356,0.62502c-0.32771,0.14193 -0.70642,0.09665 -0.99142,-0.11854c-0.53881,-0.32329 -1.07763,-0.8621 -0.67891,-1.70265c0.16136,-0.28763 0.36073,-0.55223 0.5927,-0.78667c1.50868,-1.64877 3.3191,-3.45919 3.66394,-5.29116" fill="#ffffff" stroke="none" stroke-width="1" stroke-linecap="butt" stroke-linejoin="miter"/><path d="M273.01687,228.32251c-1.52633,-0.40212 -2.63238,-1.7242 -2.75873,-3.29754" fill="#ffffff" stroke="none" stroke-width="1" stroke-linecap="butt" stroke-linejoin="miter"/><path d="M272.40262,227.50351c1.06594,-1.44843 2.34482,-2.72732 3.79325,-3.79325" fill="#ffffff" stroke="none" stroke-width="1" stroke-linecap="butt" stroke-linejoin="miter"/><path d="M271.58362,226.71685c1.12878,-1.68079 2.49337,-3.19055 4.05189,-4.48294" fill="#ffffff" stroke="none" stroke-width="1" stroke-linecap="butt" stroke-linejoin="miter"/><path d="M270.60298,225.88707c1.11948,-1.69119 2.48516,-3.20578 4.05189,-4.49371" fill="#ffffff" stroke="none" stroke-width="1" stroke-linecap="butt" stroke-linejoin="miter"/><path d="M276.52994,222.01838l1.84275,1.69188c0.16736,0.13429 0.30342,0.30346 0.39872,0.49571c0.07005,0.23924 0.07005,0.49354 0,0.73279c-0.33407,2.01517 -1.71343,3.67472 -3.03891,5.2265l-7.5434,8.7288c-0.11732,0.16291 -0.2778,0.28981 -0.46338,0.36639c-0.17842,0.05917 -0.37117,0.05917 -0.54959,0c-0.82196,-0.25061 -1.53561,-0.77067 -2.02594,-1.47635" fill="#ffffff" stroke="none" stroke-width="1" stroke-linecap="butt" stroke-linejoin="miter"/><path d="M268.66325,237.81642c-0.49163,-0.0963 -0.94036,-0.34519 -1.28238,-0.71124" fill="#ffffff" stroke="none" stroke-width="1" stroke-linecap="butt" stroke-linejoin="miter"/><path d="M269.80553,236.39395c-0.48851,-0.06085 -0.91978,-0.34837 -1.16384,-0.77589" fill="#ffffff" stroke="none" stroke-width="1" stroke-linecap="butt" stroke-linejoin="miter"/><path d="M271.01248,234.61587c-0.46738,0.06874 -0.91834,-0.20183 -1.07763,-0.64658" fill="#ffffff" stroke="none" stroke-width="1" stroke-linecap="butt" stroke-linejoin="miter"/><path d="M271.50819,232.69769l0.98064,0.71124" fill="#ffffff" stroke="none" stroke-width="1" stroke-linecap="butt" stroke-linejoin="miter"/><path d="M272.33796,231.41531c0.44966,0.07835 0.86595,0.28837 1.19617,0.60347" fill="#ffffff" stroke="none" stroke-width="1" stroke-linecap="butt" stroke-linejoin="miter"/><path d="M273.55568,230.27302c0.42483,0.1243 0.80109,0.37639 1.07763,0.72201" fill="#ffffff" stroke="none" stroke-width="1" stroke-linecap="butt" stroke-linejoin="miter"/><path d="M275.80793,229.47558l-0.84055,-0.89443" fill="#ffffff" stroke="none" stroke-width="1" stroke-linecap="butt" stroke-linejoin="miter"/><path d="M275.63551,227.29877c0.47045,0.22741 0.85022,0.60718 1.07763,1.07763" fill="#ffffff" stroke="none" stroke-width="1" stroke-linecap="butt" stroke-linejoin="miter"/><path d="M276.24975,225.84397c0.50864,0.35734 0.99452,0.74604 1.4548,1.16384" fill="#ffffff" stroke="none" stroke-width="1" stroke-linecap="butt" stroke-linejoin="miter"/><path d="M277.16574,224.88488c0.25655,0.10354 0.4827,0.27037 0.65735,0.48493" fill="#ffffff" stroke="none" stroke-width="1" stroke-linecap="butt" stroke-linejoin="miter"/><path d="M269.97795,227.71904" fill="#ffffff" stroke="none" stroke-width="1" stroke-linecap="butt" stroke-linejoin="miter"/><path d="M269.5038,228.89366" fill="#ffffff" stroke="none" stroke-width="1" stroke-linecap="butt" stroke-linejoin="miter"/><g clip-path="url(#clip-27)" stroke-linecap="butt" stroke-linejoin="miter"><path d="M270.9503,215.54164l11.54531,6.37862l-12.23089,22.13794l-11.54531,-6.37862z" fill="#ffffff" stroke="#0a0000" stroke-width="0.4"/></g><path d="M268.2753,230.21914c-0.47416,-1.89663 0.65735,-4.69846 2.48932,-6.88605c0.84378,-1.15677 2.03792,-2.0108 3.40531,-2.43544c0.68712,-0.09559 1.38135,0.11742 1.89663,0.58192c0.35539,0.28094 0.62738,0.65353 0.78667,1.07763c0.34484,1.07763 -0.1832,2.64019 -1.07763,4.03033c-0.94811,1.38255 -2.03104,2.66764 -3.23289,3.83636l-5.94851,6.30413c-0.20461,0.25495 -0.45723,0.4673 -0.74356,0.62502c-0.32771,0.14193 -0.70642,0.09665 -0.99142,-0.11854c-0.53881,-0.32329 -1.07763,-0.8621 -0.67891,-1.70265c0.16136,-0.28763 0.36073,-0.55223 0.5927,-0.78667c1.50868,-1.64877 3.3191,-3.45919 3.66394,-5.29116" fill="none" stroke="#0a0000" stroke-width="0.4" stroke-linecap="butt" stroke-linejoin="miter"/><path d="M273.01687,228.32251c-1.52633,-0.40212 -2.63238,-1.7242 -2.75873,-3.29754" fill="none" stroke="#0a0000" stroke-width="0.4" stroke-linecap="butt" stroke-linejoin="miter"/><path d="M272.40262,227.50351c1.06594,-1.44843 2.34482,-2.72732 3.79325,-3.79325" fill="none" stroke="#0a0000" stroke-width="0.4" stroke-linecap="butt" stroke-linejoin="miter"/><path d="M271.58362,226.71685c1.12878,-1.68079 2.49337,-3.19055 4.05189,-4.48294" fill="none" stroke="#0a0000" stroke-width="0.4" stroke-linecap="butt" stroke-linejoin="miter"/><path d="M270.60298,225.88707c1.11948,-1.69119 2.48516,-3.20578 4.05189,-4.49371" fill="none" stroke="#0a0000" stroke-width="0.4" stroke-linecap="butt" stroke-linejoin="miter"/><path d="M276.52994,222.01838l1.84275,1.69188c0.16736,0.13429 0.30342,0.30346 0.39872,0.49571c0.07005,0.23924 0.07005,0.49354 0,0.73279c-0.33407,2.01517 -1.71343,3.67472 -3.03891,5.2265l-7.5434,8.7288c-0.11732,0.16291 -0.2778,0.28981 -0.46338,0.36639c-0.17842,0.05917 -0.37117,0.05917 -0.54959,0c-0.82196,-0.25061 -1.53561,-0.77067 -2.02594,-1.47635" fill="none" stroke="#0a0000" stroke-width="0.4" stroke-linecap="butt" stroke-linejoin="miter"/><path d="M268.66325,237.81642c-0.49163,-0.0963 -0.94036,-0.34519 -1.28238,-0.71124" fill="none" stroke="#0a0000" stroke-width="0.4" stroke-linecap="butt" stroke-linejoin="miter"/><path d="M269.80553,236.39395c-0.48851,-0.06085 -0.91978,-0.34837 -1.16384,-0.77589" fill="none" stroke="#0a0000" stroke-width="0.4" stroke-linecap="butt" stroke-linejoin="miter"/><path d="M271.01248,234.61587c-0.46738,0.06874 -0.91834,-0.20183 -1.07763,-0.64658" fill="none" stroke="#0a0000" stroke-width="0.4" stroke-linecap="butt" stroke-linejoin="miter"/><path d="M271.50819,232.69769l0.98064,0.71124" fill="none" stroke="#0a0000" stroke-width="0.4" stroke-linecap="butt" stroke-linejoin="miter"/><path d="M272.33796,231.41531c0.44966,0.07835 0.86595,0.28837 1.19617,0.60347" fill="none" stroke="#0a0000" stroke-width="0.4" stroke-linecap="butt" stroke-linejoin="miter"/><path d="M273.55568,230.27302c0.42483,0.1243 0.80109,0.37639 1.07763,0.72201" fill="none" stroke="#0a0000" stroke-width="0.4" stroke-linecap="butt" stroke-linejoin="miter"/><path d="M275.80793,229.47558l-0.84055,-0.89443" fill="none" stroke="#0a0000" stroke-width="0.4" stroke-linecap="butt" stroke-linejoin="miter"/><path d="M275.63551,227.29877c0.47045,0.22741 0.85022,0.60718 1.07763,1.07763" fill="none" stroke="#0a0000" stroke-width="0.4" stroke-linecap="butt" stroke-linejoin="miter"/><path d="M276.24975,225.84397c0.50864,0.35734 0.99452,0.74604 1.4548,1.16384" fill="none" stroke="#0a0000" stroke-width="0.4" stroke-linecap="butt" stroke-linejoin="miter"/><path d="M277.16574,224.88488c0.25655,0.10354 0.4827,0.27037 0.65735,0.48493" fill="none" stroke="#0a0000" stroke-width="0.4" stroke-linecap="butt" stroke-linejoin="miter"/><path d="M269.97795,227.71904" fill="none" stroke="#0a0000" stroke-width="0.4" stroke-linecap="butt" stroke-linejoin="miter"/><path d="M269.5038,228.89366" fill="none" stroke="#0a0000" stroke-width="0.4" stroke-linecap="butt" stroke-linejoin="miter"/><path d="M268.2753,230.21914c-0.47416,-1.89663 0.65735,-4.69846 2.48932,-6.88605c0.84378,-1.15677 2.03792,-2.0108 3.40531,-2.43544c0.68712,-0.09559 1.38135,0.11742 1.89663,0.58192c0.35539,0.28094 0.62738,0.65353 0.78667,1.07763c0.34484,1.07763 -0.1832,2.64019 -1.07763,4.03033c-0.94811,1.38255 -2.03104,2.66764 -3.23289,3.83636l-5.94851,6.30413c-0.20461,0.25495 -0.45723,0.4673 -0.74356,0.62502c-0.32771,0.14193 -0.70642,0.09665 -0.99142,-0.11854c-0.53881,-0.32329 -1.07763,-0.8621 -0.67891,-1.70265c0.16136,-0.28763 0.36073,-0.55223 0.5927,-0.78667c1.50868,-1.64877 3.3191,-3.45919 3.66394,-5.29116" fill="#ffffff" stroke="#0c0607" stroke-width="1.6" stroke-linecap="butt" stroke-linejoin="miter"/><path d="M269.79476,225.14351c0,-0.35709 0.28948,-0.64658 0.64658,-0.64658c0.35709,0 0.64658,0.28948 0.64658,0.64658c0,0.05388 0,0.06466 0,0.16164c0,0.09699 0,-0.11854 0,0c0.01275,0.09432 0.03073,0.18786 0.05388,0.28018c0.02012,0.09114 0.0453,0.18107 0.07543,0.26941v0.12932c0,0 0.06466,0.09699 0,0c-0.06466,-0.09699 0,0.07543 0,0.07543v0.09699c0.04024,0.0861 0.08707,0.16897 0.14009,0.24785c0.04391,0.0829 0.09437,0.16218 0.15087,0.23708c0,0 0.07543,0.14009 0,0l0.10776,0.09699c0.11747,0.13709 0.24345,0.26666 0.37717,0.38795l0.10776,0.09699v0c0.07543,0.05388 0,0.05388 0,0c0.07865,0.04924 0.15422,0.10322 0.2263,0.16164c0.13772,0.10191 0.2904,0.18189 0.4526,0.23708c-0.17242,0 0,0 0,0h0.12932l0.26941,0.07543c0.34195,0.09935 0.54263,0.45292 0.4526,0.79745c-0.0945,0.34048 -0.44482,0.54204 -0.78667,0.4526c-1.80455,-0.48323 -3.10322,-2.05894 -3.23289,-3.92257z" fill="#0c0607" stroke="none" stroke-width="1" stroke-linecap="butt" stroke-linejoin="miter"/><path d="M272.24097,227.83758c-0.07435,-0.04284 -0.12862,-0.11347 -0.15085,-0.19634c-0.02223,-0.08287 -0.01061,-0.17118 0.03231,-0.24548c1.09699,-1.49563 2.41616,-2.8148 3.91179,-3.91179c0.15474,-0.08927 0.35256,-0.0362 0.44183,0.11854c0.08927,0.15474 0.0362,0.35256 -0.11854,0.44183c-1.40353,1.03222 -2.6425,2.27119 -3.67472,3.67472c-0.09288,0.14996 -0.28636,0.20187 -0.44183,0.11854z" fill="#0c0607" stroke="none" stroke-width="1" stroke-linecap="butt" stroke-linejoin="miter"/><path d="M271.30344,226.5552c1.14947,-1.70337 2.53144,-3.23767 4.10577,-4.55837c0.32329,-0.25863 0.77589,0.19397 0.46338,0.46338c-1.5439,1.27421 -2.89429,2.76618 -4.00878,4.42906c-0.2263,0.34484 -0.78667,0.01078 -0.56037,-0.33407z" fill="#0c0607" stroke="none" stroke-width="1" stroke-linecap="butt" stroke-linejoin="miter"/><path d="M270.32279,225.71465c1.14305,-1.70838 2.52579,-3.24353 4.10577,-4.55837c0.31251,-0.25863 0.77589,0.19397 0.4526,0.46338c-1.53809,1.27707 -2.88454,2.76869 -3.998,4.42906c-0.23708,0.34484 -0.78667,0.02155 -0.56037,-0.33407z" fill="#0c0607" stroke="none" stroke-width="1" stroke-linecap="butt" stroke-linejoin="miter"/><path d="M276.21742,222.36322c-0.46338,-0.43105 0.2263,-1.10996 0.67891,-0.68968l1.43325,1.2716c0.37239,0.28482 0.6716,0.65422 0.87288,1.07763c0.15702,0.92621 -0.02264,1.87805 -0.50649,2.6833c-1.1244,2.03503 -2.5322,3.89999 -4.1812,5.53901l-5.38815,6.29335c-0.6358,0.77589 -1.07763,1.42247 -2.15526,1.07763c-0.87159,-0.31911 -1.624,-0.89846 -2.15526,-1.65955c-0.37717,-0.49571 0.46338,-0.98064 0.82977,-0.49571c0.48493,0.64658 1.72421,1.69188 2.39234,0.92676c0.66813,-0.76512 1.32548,-1.54101 1.98284,-2.30613l3.96567,-4.62303c1.31786,-1.38148 2.50475,-2.88222 3.5454,-4.48294c0.36639,-0.64658 1.15306,-2.06905 0.64658,-2.80184c-0.59466,-0.68192 -1.25924,-1.29956 -1.98284,-1.84275z" fill="#0a0000" stroke="none" stroke-width="1" stroke-linecap="butt" stroke-linejoin="miter"/><path d="M267.08991,237.4177c-0.18482,-0.18856 -0.18482,-0.49034 0,-0.67891c0.09109,-0.09214 0.21528,-0.14398 0.34484,-0.14398c0.12956,0 0.25375,0.05184 0.34484,0.14398c0.08915,0.09791 0.18648,0.18805 0.29096,0.26941l-0.09699,-0.08621c0.16281,0.13076 0.34446,0.23613 0.53881,0.31251h-0.11854c0.14526,0.06319 0.29705,0.11017 0.4526,0.14009c0.1222,0.02941 0.22722,0.10719 0.29096,0.21553c0.04747,0.12124 0.04747,0.25593 0,0.37717c-0.03969,0.12014 -0.11963,0.22292 -0.2263,0.29096c-0.12104,0.04856 -0.25613,0.04856 -0.37717,0c-0.57525,-0.11576 -1.09938,-0.40988 -1.4979,-0.84055z" fill="#0a0000" stroke="none" stroke-width="1" stroke-linecap="butt" stroke-linejoin="miter"/><path d="M268.30763,235.76893c-0.12462,-0.23618 -0.04445,-0.52853 0.1832,-0.66813c0.1172,-0.0491 0.24919,-0.0491 0.36639,0c0.12069,0.03259 0.22462,0.10956 0.29096,0.21553c0.03568,0.06346 0.07527,0.12465 0.11854,0.1832l-0.07543,-0.10776c0.07919,0.10972 0.17352,0.20769 0.28018,0.29096l-0.09699,-0.07543c0.10737,0.07729 0.22304,0.14234 0.34484,0.19397h-0.11854c0.12374,0.0536 0.25429,0.08986 0.38795,0.10776h-0.12932v0c0.08686,-0.00054 0.17232,0.02177 0.24785,0.06466l0.09699,0.07543c0.08971,0.09239 0.13996,0.21606 0.14009,0.34484c-0.00065,0.12551 -0.05103,0.24563 -0.14009,0.33407c-0.08995,0.09467 -0.21426,0.14906 -0.34484,0.15087c-0.16556,-0.01523 -0.3285,-0.05144 -0.48493,-0.10776c-0.15365,-0.04989 -0.29895,-0.12255 -0.43105,-0.21553c-0.27424,-0.17368 -0.50324,-0.41008 -0.66813,-0.68968z" fill="#0a0000" stroke="none" stroke-width="1" stroke-linecap="butt" stroke-linejoin="miter"/><path d="M269.42836,234.07705c-0.04856,-0.12104 -0.04856,-0.25613 0,-0.37717c0.06552,-0.10672 0.16978,-0.18394 0.29096,-0.21553c0.12004,-0.05348 0.25713,-0.05348 0.37717,0c0.10672,0.06552 0.18394,0.16978 0.21553,0.29096v0.06466v-0.10776c0.03555,0.067 0.07514,0.13177 0.11854,0.19397l-0.07543,-0.09699c0.05285,0.06563 0.11449,0.12365 0.1832,0.17242l-0.09699,-0.07543c0.06978,0.05527 0.14572,0.10229 0.2263,0.14009h-0.11854c0.07923,0.03292 0.16265,0.05468 0.24785,0.06466v0c0.08487,-0.02143 0.17376,-0.02143 0.25863,0l0.11854,0.05388c0.1086,0.06591 0.18916,0.16948 0.2263,0.29096c0.04791,0.11743 0.04791,0.24896 0,0.36639c-0.05939,0.11422 -0.16563,0.19686 -0.29096,0.2263c-0.09691,0.00528 -0.19405,0.00528 -0.29096,0h-0.29096c-0.14831,-0.03494 -0.29016,-0.09313 -0.42028,-0.17242c-0.30122,-0.18038 -0.52704,-0.46362 -0.6358,-0.79745z" fill="#0a0000" stroke="none" stroke-width="1" stroke-linecap="butt" stroke-linejoin="miter"/><path d="M271.04481,232.93477v-0.11854c-0.04747,-0.12124 -0.04747,-0.25593 0,-0.37717c0.06065,-0.11107 0.16704,-0.18988 0.29096,-0.21553c0.12104,-0.04856 0.25613,-0.04856 0.37717,0l0.98064,0.71124c0.07014,0.04323 0.12919,0.10228 0.17242,0.17242v0.11854c0.04747,0.12124 0.04747,0.25593 0,0.37717c-0.06065,0.11107 -0.16704,0.18988 -0.29096,0.21553c-0.1172,0.0491 -0.24919,0.0491 -0.36639,0l-0.99142,-0.71124c-0.07014,-0.04323 -0.12919,-0.10228 -0.17242,-0.17242z" fill="#0a0000" stroke="none" stroke-width="1" stroke-linecap="butt" stroke-linejoin="miter"/><path d="M272.16554,231.93257c-0.12411,-0.03195 -0.22944,-0.11388 -0.29096,-0.2263c-0.04791,-0.11743 -0.04791,-0.24896 0,-0.36639c0.02944,-0.12533 0.11208,-0.23157 0.2263,-0.29096c0.1102,-0.06572 0.24194,-0.0851 0.36639,-0.05388c0.53086,0.10451 1.02072,0.35879 1.41169,0.73279c0.08538,0.09515 0.13493,0.2171 0.14009,0.34484c-0.00768,0.12718 -0.0569,0.24833 -0.14009,0.34484c-0.19222,0.18614 -0.49747,0.18614 -0.68968,0l-0.1832,-0.16164l0.09699,0.07543c-0.16077,-0.11934 -0.33425,-0.22054 -0.51726,-0.30174h0.11854c-0.15987,-0.06649 -0.32591,-0.11702 -0.49571,-0.15087z" fill="#0a0000" stroke="none" stroke-width="1" stroke-linecap="butt" stroke-linejoin="miter"/><path d="M273.43714,230.7364c-0.2551,-0.07338 -0.40712,-0.33467 -0.34484,-0.5927c0.03507,-0.12476 0.1186,-0.23028 0.23198,-0.29304c0.11338,-0.06276 0.24715,-0.07754 0.37149,-0.04103c0.49959,0.15062 0.94494,0.44254 1.28238,0.84055c0.06522,0.05603 0.11058,0.13162 0.12932,0.21553v0.12932c0.00463,0.12652 -0.0466,0.24868 -0.14009,0.33407c-0.08759,0.09797 -0.21345,0.15302 -0.34484,0.15087c-0.12735,-0.00224 -0.24818,-0.0568 -0.33407,-0.15087c-0.11146,-0.12578 -0.23409,-0.24121 -0.36639,-0.34484l0.09699,0.07543c-0.16226,-0.11707 -0.33549,-0.21812 -0.51726,-0.30174l0.11854,0.05388l-0.19397,-0.07543z" fill="#0a0000" stroke="none" stroke-width="1" stroke-linecap="butt" stroke-linejoin="miter"/><path d="M274.48244,228.58114c0.00065,-0.12551 0.05103,-0.24563 0.14009,-0.33407c0.08958,-0.09492 0.21433,-0.14872 0.34484,-0.14872c0.13051,0 0.25526,0.0538 0.34484,0.14872l0.84055,0.88366c0.08787,0.09358 0.1378,0.2165 0.14009,0.34484c0.00225,0.12924 -0.04834,0.25379 -0.14009,0.34484c-0.19222,0.18614 -0.49747,0.18614 -0.68968,0l-0.84055,-0.89443c-0.08538,-0.09515 -0.13493,-0.2171 -0.14009,-0.34484z" fill="#0a0000" stroke="none" stroke-width="1" stroke-linecap="butt" stroke-linejoin="miter"/><path d="M275.44153,227.81603c-0.11242,-0.06152 -0.19435,-0.16685 -0.2263,-0.29096c-0.04856,-0.12104 -0.04856,-0.25613 0,-0.37717c0.06466,-0.1075 0.16928,-0.18501 0.29096,-0.21553c0.12104,-0.04856 0.25613,-0.04856 0.37717,0c0.52444,0.26055 0.95406,0.67886 1.2285,1.19617c0.13135,0.22948 0.05466,0.52188 -0.17242,0.65735c-0.12004,0.05348 -0.25713,0.05348 -0.37717,0c-0.12197,-0.03621 -0.22584,-0.117 -0.29096,-0.2263c-0.0655,-0.1188 -0.13745,-0.23391 -0.21553,-0.34484l0.07543,0.09699c-0.12442,-0.15857 -0.26937,-0.2999 -0.43105,-0.42028l0.10776,0.07543c-0.12754,-0.0966 -0.26477,-0.17966 -0.4095,-0.24785z" fill="#0a0000" stroke="none" stroke-width="1" stroke-linecap="butt" stroke-linejoin="miter"/><path d="M275.99112,226.22114c-0.10667,-0.06804 -0.18661,-0.17081 -0.2263,-0.29096c-0.03122,-0.12446 -0.01184,-0.2562 0.05388,-0.36639c0.08036,-0.08161 0.18754,-0.13136 0.30174,-0.14009c0.12124,-0.04747 0.25593,-0.04747 0.37717,0c0.53844,0.38585 1.05641,0.7995 1.55179,1.23927c0.17562,0.19635 0.17562,0.49333 0,0.68968c-0.19438,0.1807 -0.4953,0.1807 -0.68968,0c-0.29096,-0.26941 -0.5927,-0.51726 -0.90521,-0.75434l0.09699,0.07543c-0.17242,-0.14009 -0.36639,-0.28018 -0.54959,-0.4095z" fill="#0a0000" stroke="none" stroke-width="1" stroke-linecap="butt" stroke-linejoin="miter"/><path d="M276.93944,225.2836c-0.06772,-0.04622 -0.1262,-0.1047 -0.17242,-0.17242v-0.11854c-0.04856,-0.12104 -0.04856,-0.25613 0,-0.37717c0.03148,-0.05334 0.07597,-0.09784 0.12932,-0.12932c0.04167,-0.01408 0.08534,-0.02136 0.12932,-0.02155c0.06368,-0.01597 0.1303,-0.01597 0.19397,0c0.06008,-0.01552 0.12312,-0.01552 0.1832,0c0.12761,0.0511 0.24735,0.12004 0.35562,0.20475c0.14757,0.101 0.28157,0.22052 0.39872,0.35562c0.0613,0.05923 0.1059,0.13357 0.12932,0.21553v0.12932c0.00463,0.12652 -0.0466,0.24868 -0.14009,0.33407c-0.03987,0.04863 -0.09193,0.08581 -0.15087,0.10776c-0.06377,0.01513 -0.1302,0.01513 -0.19397,0c-0.06001,0.016 -0.12318,0.016 -0.1832,0c-0.06336,-0.01912 -0.11963,-0.05662 -0.16164,-0.10776c-0.07815,-0.09064 -0.16475,-0.17363 -0.25863,-0.24785l0.09699,0.07543c-0.12132,-0.09424 -0.25561,-0.17046 -0.39872,-0.2263z" fill="#0a0000" stroke="none" stroke-width="1" stroke-linecap="butt" stroke-linejoin="miter"/><path d="M269.49302,227.70826c0,-0.26782 0.21711,-0.48493 0.48493,-0.48493c0.26782,0 0.48493,0.21711 0.48493,0.48493c0,0.26782 -0.21711,0.48493 -0.48493,0.48493c-0.26782,0 -0.48493,-0.21711 -0.48493,-0.48493z" fill="#0a0000" stroke="none" stroke-width="1" stroke-linecap="butt" stroke-linejoin="miter"/><path d="M269.01886,228.89366c0,-0.26782 0.21711,-0.48493 0.48493,-0.48493c0.26782,0 0.48493,0.21711 0.48493,0.48493c0,0.26782 -0.21711,0.48493 -0.48493,0.48493c-0.26782,0 -0.48493,-0.21711 -0.48493,-0.48493z" fill="#0a0000" stroke="none" stroke-width="1" stroke-linecap="butt" stroke-linejoin="miter"/><path d="M239.43795,223.22533c0.66813,0.76512 1.87507,0.49571 2.03672,1.07763c0.47416,1.88585 -9.69866,6.09938 -10.4099,6.41189l-4.52604,1.85352l-2.51088,1.02375c-0.80546,-2.2202 -1.47483,-4.48742 -2.00439,-6.78906c-0.4095,-1.83197 -0.71124,-3.55618 -0.91598,-5.16184c0.32329,-0.09699 0.78667,-0.2263 1.33626,-0.42028c1.8643,-0.6358 2.84494,-0.91598 3.23289,-1.4548c1.21772,-1.54101 -0.31251,-3.42686 0.36639,-5.89463c0.32329,-1.20694 1.25005,-2.78028 3.89024,-4.31052l0.43105,-2.56476l7.20934,0.29096l2.60786,0.09699l4.31052,3.86869c-3.23289,4.66613 -6.61664,10.15127 -5.05408,11.97246z" fill="#384998" stroke="#0c0607" stroke-width="1.82" stroke-linecap="square" stroke-linejoin="round"/><path d="M223.57525,223.69948l-0.08621,-0.96987" fill="none" stroke="#ffffff" stroke-width="0.4" stroke-linecap="butt" stroke-linejoin="miter"/><path d="M223.5968,223.89346l0.09699,1.12073" fill="none" stroke="#ffffff" stroke-width="0.4" stroke-linecap="butt" stroke-linejoin="miter"/><path d="M223.72611,225.33748l0.07543,0.94831" fill="none" stroke="#ffffff" stroke-width="0.4" stroke-linecap="butt" stroke-linejoin="miter"/><path d="M224.09251,227.53584l-0.23708,-0.94831" fill="none" stroke="#ffffff" stroke-width="0.4" stroke-linecap="butt" stroke-linejoin="miter"/><path d="M224.43735,228.90443l-0.28018,-1.08841" fill="none" stroke="#ffffff" stroke-width="0.4" stroke-linecap="butt" stroke-linejoin="miter"/><path d="M224.8253,230.07905l-0.26941,-0.92676" fill="none" stroke="#ffffff" stroke-width="0.4" stroke-linecap="butt" stroke-linejoin="miter"/><path d="M225.06237,230.89805l-0.15087,-0.51726" fill="none" stroke="#ffffff" stroke-width="0.4" stroke-linecap="butt" stroke-linejoin="miter"/><path d="M237.17492,202.00681l19.39732,2.21992c1.07012,2.71147 1.71356,5.5724 1.9074,8.48094c0.11854,2.15526 0.07543,6.0455 0.07543,6.0455v0c1.27471,1.09657 2.73427,1.95772 4.31052,2.5432c1.62484,0.78059 2.9713,2.04056 3.85791,3.61006c-0.43122,1.44571 -0.99394,2.8489 -1.6811,4.19198c-0.7058,1.71178 -1.81493,3.22759 -3.23289,4.41828c-0.83974,0.62154 -1.78547,1.08528 -2.79106,1.36859c-2.01255,-2.84115 -4.71638,-5.12215 -7.85592,-6.62742c-2.37078,-1.07763 -3.69627,-1.07763 -6.25025,-2.15526c-3.40581,-1.42972 -6.46377,-3.57617 -8.96587,-6.29335" fill="#384998" stroke="#0c0607" stroke-width="1.82" stroke-linecap="square" stroke-linejoin="round"/><g clip-path="url(#clip-28)" stroke-linecap="butt" stroke-linejoin="miter"><path d="M263.21044,210.8757c1.9074,4.32129 -1.64877,7.30632 -9.33227,6.72441c-7.6835,-0.58192 -10.76551,-4.05189 -8.23309,-8.04989c7.05847,0.65735 10.57154,0.92676 17.56535,1.32548z" fill="#384998" stroke="#0c0607" stroke-width="1.85"/></g><path d="M227.81033,218.51609c0,0.04311 0,0.12932 0,0.12932c0,1.19032 -0.96494,2.15526 -2.15526,2.15526c-0.33288,-0.00036 -0.66116,-0.07782 -0.95909,-0.2263c-0.3963,0.97528 -1.43916,1.52156 -2.46656,1.29206c-1.0274,-0.22949 -1.73868,-1.16761 -1.68231,-2.21882c-0.81834,0.01449 -1.57429,-0.43579 -1.95124,-1.16229c-0.37695,-0.72649 -0.30987,-1.60382 0.17315,-2.26457c-0.48303,-0.66075 -0.55011,-1.53807 -0.17315,-2.26457c0.37695,-0.72649 1.13289,-1.17679 1.95124,-1.16229h0.15087c0.25228,-0.67492 0.82514,-1.17912 1.52663,-1.34367c0.70149,-0.16454 1.4388,0.03233 1.96488,0.52468c0.62874,-0.5996 1.55603,-0.76305 2.35189,-0.41456c0.79586,0.34848 1.30466,1.14076 1.29049,2.00945c-0.00069,0.26934 -0.05187,0.53617 -0.15087,0.78667c0.93197,0.26134 1.57541,1.11191 1.57334,2.07982c0.01954,0.93274 -0.56327,1.77216 -1.44402,2.07982z" fill="#c56792" stroke="#0a0000" stroke-width="2.4" stroke-linecap="butt" stroke-linejoin="miter"/><path d="M234.8688,204.90563c-1.58411,-0.17242 0,0.20475 -6.19637,0.1832c-4.17042,0 -4.98942,-0.1832 -6.25025,0.52804c-0.73279,0.4095 -0.6358,0.57114 -2.03672,1.76731c-2.2738,1.93973 -4.31052,3.69627 -5.38815,3.16823c-1.07763,-0.52804 -1.25005,-3.43764 -0.39872,-5.54979c0.85133,-2.11215 2.69407,-3.34065 4.47216,-4.46138c1.75517,-1.049 3.65376,-1.83675 5.636,-2.33846c3.5454,-1.07763 5.31271,-1.60567 7.32788,-1.31471c3.5885,0.52804 7.34943,3.23289 7.10158,5.38815c-0.2688,1.12455 -1.07531,2.04397 -2.15526,2.45699c-0.67402,0.25407 -1.40584,0.31382 -2.11215,0.17242z" fill="#e4bdd0" stroke="#0a0000" stroke-width="2.4" stroke-linecap="butt" stroke-linejoin="miter"/><path d="M244.12563,205.95093c-1.72839,0.86494 -3.38273,1.87052 -4.94632,3.00659c-2.64019,-5.0002 -3.23289,-6.82139 -5.88385,-11.15346c1.84776,-0.63754 3.64827,-1.40455 5.38815,-2.29535c2.5001,4.69846 3.00659,6.34724 5.44203,10.44223z" fill="#384998" stroke="#0c0607" stroke-width="0.8" stroke-linecap="butt" stroke-linejoin="miter"/><path d="M234.72871,198.17045c0.28018,-0.08621 0.4095,0.11854 0.14009,0.20475c-0.28018,0.09699 -0.42028,-0.11854 -0.14009,-0.20475z" fill="#ffffff" stroke="none" stroke-width="1" stroke-linecap="butt" stroke-linejoin="miter"/><path d="M234.75026,198.27821c0.31251,0.47416 0.4526,0.70046 0.72201,1.15306" fill="none" stroke="#ffffff" stroke-width="0.4" stroke-linecap="butt" stroke-linejoin="miter"/><path d="M235.87099,200.11018c0.20834,0.34759 0.39547,0.70745 0.56037,1.07763" fill="none" stroke="#ffffff" stroke-width="0.4" stroke-linecap="butt" stroke-linejoin="miter"/><path d="M236.79775,201.97448c0.1832,0.39872 0.26941,0.60347 0.4526,1.01297" fill="none" stroke="#ffffff" stroke-width="0.4" stroke-linecap="butt" stroke-linejoin="miter"/><path d="M237.6383,203.86033l0.61425,1.35781" fill="none" stroke="#ffffff" stroke-width="0.4" stroke-linecap="butt" stroke-linejoin="miter"/><path d="M239.20087,207.1471c-0.25863,-0.49571 -0.37717,-0.73279 -0.60347,-1.20694" fill="none" stroke="#ffffff" stroke-width="0.4" stroke-linecap="butt" stroke-linejoin="miter"/><path d="M238.54351,196.9204c0.30174,0.57114 0.44183,0.85133 0.68968,1.40092" fill="none" stroke="#ffffff" stroke-width="0.4" stroke-linecap="butt" stroke-linejoin="miter"/><path d="M239.61037,199.12954l0.52804,1.17462" fill="none" stroke="#ffffff" stroke-width="0.4" stroke-linecap="butt" stroke-linejoin="miter"/><path d="M240.90352,202.04992c-0.17242,-0.37717 -0.25863,-0.57114 -0.42028,-0.95909" fill="none" stroke="#ffffff" stroke-width="0.4" stroke-linecap="butt" stroke-linejoin="miter"/><path d="M241.53932,203.42928c-0.17242,-0.31251 -0.23708,-0.48493 -0.38795,-0.80822" fill="none" stroke="#ffffff" stroke-width="0.4" stroke-linecap="butt" stroke-linejoin="miter"/><path d="M242.43375,204.98107c-0.16164,-0.25863 -0.23708,-0.38795 -0.37717,-0.6358" fill="none" stroke="#ffffff" stroke-width="0.4" stroke-linecap="butt" stroke-linejoin="miter"/><path d="M243.61915,203.23531l0.94831,5.08641l-7.00459,1.30393l-0.94831,-5.08641zM242.4122,204.61467l-4.1812,0.78667l0.52804,2.84494l4.21353,-0.78667z" fill="#edea4f" stroke="#0c0607" stroke-width="0.8" stroke-linecap="butt" stroke-linejoin="miter"/><path d="M276.89633,172.16726c2.38156,20.09778 -19.8607,25.59369 -34.15006,25.59369c-15.9058,0 -36.56395,-3.44841 -34.10696,-25.59369c1.99361,-17.93175 17.08042,-26.81141 34.10696,-26.26182c15.93813,0.51726 32.04869,9.2245 34.15006,26.26182z" fill="#c56792" stroke="#0a0000" stroke-width="2.4" stroke-linecap="butt" stroke-linejoin="miter"/><path d="M237.03483,138.38359c0.06466,-0.15087 0.21553,-0.47416 0.42028,-0.8621c0.79459,-1.37789 1.76146,-2.64894 2.87727,-3.78248c1.58411,-1.97206 1.0453,-4.74157 0.84055,-5.8192c-0.76512,-4.08421 -4.20275,-5.58212 -3.5454,-6.85372c0.65735,-1.2716 4.23508,-1.03452 6.46577,-0.34484c2.19218,0.67584 4.09119,2.07351 5.38815,3.96567c1.08216,1.58966 1.66731,3.46515 1.6811,5.38815c0.06466,4.22431 -2.87727,7.16623 -8.55637,12.84534c-3.65316,3.65316 -4.51527,3.70704 -4.96787,3.5454c-1.69188,-0.58192 -1.79964,-5.34504 -0.60347,-8.08222z" fill="#c56792" stroke="#0a0000" stroke-width="2.4" stroke-linecap="square" stroke-linejoin="bevel"/><path d="M272.58581,175.36782c0.35562,4.83855 0.72201,9.69866 -1.84275,14.11694c-5.38815,9.1814 -19.83915,9.34304 -28.62183,9.44003c-6.63819,0.07543 -10.62542,0.11854 -14.82818,-2.52165c-9.28916,-5.82997 -9.58012,-18.43823 -9.5909,-20.02235c-0.07543,-8.7288 4.23508,-18.70764 12.23109,-22.69487c3.23289,-1.59489 6.61664,-1.75654 13.35182,-2.06905c5.93774,-0.26941 9.69866,-0.44183 14.19237,1.33626c4.41566,1.72832 8.21874,4.72879 10.92716,8.62103c3.51307,5.12951 3.87946,10.19437 4.1812,13.79365z" fill="#e4bdd0" stroke="#0a0000" stroke-width="2.4" stroke-linecap="butt" stroke-linejoin="miter"/><path d="M247.40162,194.31254c-2.37724,-0.08671 -4.63505,-1.0637 -6.32568,-2.73718c-1.30379,-1.3733 -2.01589,-3.20385 -1.98284,-5.09719h16.60626c-0.14162,2.15706 -1.12922,4.17096 -2.74795,5.60367c-1.57434,1.30026 -3.51351,2.07968 -5.54979,2.23069z" fill="none" stroke="#0a0000" stroke-width="2" stroke-linecap="butt" stroke-linejoin="miter"/><path d="M244.17951,181.09003c0,-1.01772 1.36057,-1.84275 3.03891,-1.84275c1.67834,0 3.03891,0.82502 3.03891,1.84275c0,1.01772 -1.36057,1.84275 -3.03891,1.84275c-1.67834,0 -3.03891,-0.82502 -3.03891,-1.84275z" fill="#0a0000" stroke="none" stroke-width="1" stroke-linecap="butt" stroke-linejoin="miter"/><path d="M251.30264,161.96212c-0.68986,0.18623 -1.40109,-0.21744 -1.59489,-0.90521c-0.4095,-2.41389 1.6811,-4.29974 3.78248,-4.93554c2.10138,-0.6358 4.84933,-0.24785 6.16404,1.65955c0.36603,0.64277 0.14168,1.46055 -0.5011,1.82658c-0.64277,0.36603 -1.46055,0.14168 -1.82658,-0.5011c-0.12932,-0.20475 0.19397,0.17242 0,0l-0.19397,-0.1832c0,0 0.14009,0.08621 0,0l-0.24785,-0.15087l-0.21553,-0.10776c-0.10776,-0.07543 0.2263,0.06466 0,0c-0.18743,-0.06382 -0.37806,-0.11777 -0.57114,-0.16164l-0.26941,-0.05388c0.23708,0 0.12932,0 0,0c-0.2118,-0.01074 -0.424,-0.01074 -0.6358,0h-0.29096c-0.06466,0 -0.32329,0.05388 -0.06466,0c-0.20475,0.04311 -0.39872,0.07543 -0.58192,0.12932l-0.35562,0.10776c-0.02155,0.06466 -0.31251,0.12932 -0.17242,0.06466h-0.24785l-0.25863,0.14009l-0.23708,0.15087c-0.04311,0.06466 -0.29096,0.24785 -0.09699,0.06466l-0.38795,0.36639l-0.09699,0.10776c0.11854,-0.14009 -0.07543,0.10776 -0.07543,0.10776l-0.14009,0.24785c-0.12932,0.21553 0.02155,-0.07543 0,0c-0.02155,0.07543 -0.07543,0.14009 -0.07543,0.21553v0.12932c0,0.11854 0.05388,0.17242 0,0c-0.05388,-0.17242 0,-0.02155 0,0.08621c0,0.10776 0.06466,0.36639 0,0c0.18369,0.66066 -0.16683,1.35236 -0.80822,1.59489z" fill="#0c0607" stroke="none" stroke-width="1" stroke-linecap="butt" stroke-linejoin="miter"/><path d="M233.42478,161.59572c-0.21686,0.65413 -0.9086,1.02327 -1.57272,0.83928c-0.66413,-0.18401 -1.06727,-0.85649 -0.9166,-1.52896c0.42028,-2.14448 3.26522,-2.83416 5.10796,-2.6833c2.03672,0.15087 4.55837,1.07763 5.26961,3.23289c0.19045,0.69038 -0.21483,1.40444 -0.90521,1.59489c-0.69038,0.19045 -1.40444,-0.21483 -1.59489,-0.90521c-0.07543,-0.24785 0.16164,0.23708 0,0c-0.03498,-0.04646 -0.06395,-0.09715 -0.08621,-0.15087c-0.11854,-0.20475 0.11854,0.07543 0,0c-0.06273,-0.0559 -0.12043,-0.11719 -0.17242,-0.1832c-0.05534,-0.04095 -0.10594,-0.08793 -0.15087,-0.14009c-0.14009,-0.12932 0.12932,0.06466 0,0l-0.4526,-0.28018l-0.26941,-0.14009c-0.08621,0 -0.28018,-0.07543 -0.08621,0l-0.54959,-0.19397l-0.57114,-0.14009h-0.2263c0.11854,0 -0.15087,0 -0.15087,0c-0.2263,0 -0.4526,0 -0.67891,0h-0.35562c-0.18171,0.02443 -0.36168,0.06042 -0.53881,0.10776l-0.28018,0.08621c-0.03233,0 -0.32329,0.06466 -0.16164,0h-0.09699l-0.21553,0.12932l-0.17242,0.10776c0.2263,-0.15087 0.02155,-0.02155 0,0c-0.02155,0.02155 -0.15087,0.16164 -0.15087,0.16164l0.09699,-0.12932v0.07543c0,0.10776 0,0 0,0c0,0 0,-0.06466 0,0c0,0.06466 0,0.12932 0,0.19397z" fill="#0c0607" stroke="none" stroke-width="1" stroke-linecap="butt" stroke-linejoin="miter"/><path d="M234.00669,172.73841c0,-3.44597 1.87681,-6.23947 4.19198,-6.23947c2.31517,0 4.19198,2.79351 4.19198,6.23947c0,3.44597 -1.87681,6.23947 -4.19198,6.23947c-2.31517,0 -4.19198,-2.79351 -4.19198,-6.23947z" fill="#ffffff" stroke="#0c0607" stroke-width="2.4" stroke-linecap="butt" stroke-linejoin="miter"/><path d="M238.19867,172.73841c0,-1.46409 0.67063,-2.65097 1.4979,-2.65097c0.82727,0 1.4979,1.18688 1.4979,2.65097c0,1.46409 -0.67063,2.65097 -1.4979,2.65097c-0.82727,0 -1.4979,-1.18688 -1.4979,-2.65097z" fill="#0a0000" stroke="#0c0607" stroke-width="2.4" stroke-linecap="butt" stroke-linejoin="miter"/><path d="M249.4599,172.73841c0,-3.44597 1.87681,-6.23947 4.19198,-6.23947c2.31517,0 4.19198,2.79351 4.19198,6.23947c0,3.44597 -1.87681,6.23947 -4.19198,6.23947c-2.31517,0 -4.19198,-2.79351 -4.19198,-6.23947z" fill="#ffffff" stroke="#0c0607" stroke-width="2.4" stroke-linecap="butt" stroke-linejoin="miter"/><path d="M253.65187,172.73841c0,-1.46409 0.67063,-2.65097 1.4979,-2.65097c0.82727,0 1.4979,1.18688 1.4979,2.65097c0,1.46409 -0.67063,2.65097 -1.4979,2.65097c-0.82727,0 -1.4979,-1.18688 -1.4979,-2.65097z" fill="#0a0000" stroke="#0c0607" stroke-width="2.4" stroke-linecap="butt" stroke-linejoin="miter"/><path d="M256.61535,174.20398l-0.56037,-0.51726l-0.74356,0.1832l0.31251,-0.71124l-0.39872,-0.66813l0.76512,0.07543l0.50649,-0.5927l0.15087,0.76512l0.70046,0.29096l-0.66813,0.39872z" fill="#989898" stroke="none" stroke-width="1" stroke-linecap="butt" stroke-linejoin="miter"/><path d="M242.03503,174.3764l-0.56037,-0.51726l-0.74356,0.1832l0.31251,-0.72201l-0.39872,-0.65735l0.76512,0.07543l0.50649,-0.5927l0.15087,0.76512l0.70046,0.29096l-0.66813,0.39872z" fill="#989898" stroke="none" stroke-width="1" stroke-linecap="butt" stroke-linejoin="miter"/><path d="M230.55828,147.25248c-0.50493,1.71762 -2.01902,2.94434 -3.80403,3.08202c-2.73718,-0.03233 -4.1812,-3.14668 -5.97006,-5.2265c-2.24147,-2.60786 -5.636,-3.86869 -8.97665,-4.67691c-2.28838,-0.41901 -4.52484,-1.0838 -6.67052,-1.98284c-1.44402,-0.70046 -4.11654,-2.42467 -4.37517,-5.08641c-0.23708,-2.43544 1.69188,-5.0433 4.73079,-6.46577v0c2.74795,-1.99361 6.54121,-1.84275 9.7741,-0.76512c7.40876,2.42848 13.10658,8.40957 15.17302,15.92736c0.53878,1.68387 0.57995,3.48748 0.11854,5.19417z" fill="#c56792" stroke="#0a0000" stroke-width="2.4" stroke-linecap="square" stroke-linejoin="bevel"/><path d="M257.0033,201.85594l0.80822,4.31052l-6.36879,1.16384l-0.80822,-4.31052zM255.92567,203.03056l-3.81481,0.71124l0.43105,2.42467l3.81481,-0.68968z" fill="#edea4f" stroke="#0c0607" stroke-width="0.71" stroke-linecap="butt" stroke-linejoin="miter"/><path d="M260.51637,231.94335l0.58192,-0.77589" fill="none" stroke="#ffffff" stroke-width="0.4" stroke-linecap="butt" stroke-linejoin="miter"/><path d="M261.21683,231.00581l0.66813,-0.89443" fill="none" stroke="#ffffff" stroke-width="0.4" stroke-linecap="butt" stroke-linejoin="miter"/><path d="M262.06816,229.84197l0.58192,-0.75434" fill="none" stroke="#ffffff" stroke-width="0.4" stroke-linecap="butt" stroke-linejoin="miter"/><path d="M262.81172,228.829l0.4526,-0.87288" fill="none" stroke="#ffffff" stroke-width="0.4" stroke-linecap="butt" stroke-linejoin="miter"/><path d="M263.40442,227.69749l0.51726,-0.99142" fill="none" stroke="#ffffff" stroke-width="0.4" stroke-linecap="butt" stroke-linejoin="miter"/><path d="M264.40661,225.57456l-0.4095,0.8621" fill="none" stroke="#ffffff" stroke-width="0.4" stroke-linecap="butt" stroke-linejoin="miter"/><path d="M264.773,224.79867l-0.2263,0.49571" fill="none" stroke="#ffffff" stroke-width="0.4" stroke-linecap="butt" stroke-linejoin="miter"/><path d="M246.27011,211.71625l0.16164,1.2285" fill="none" stroke="#ffffff" stroke-width="0.43" stroke-linecap="butt" stroke-linejoin="miter"/><path d="M258.2318,215.04612l-1.4548,0.16164" fill="none" stroke="#ffffff" stroke-width="0.43" stroke-linecap="butt" stroke-linejoin="miter"/><path d="M255.91489,215.13233h-1.2716" fill="none" stroke="#ffffff" stroke-width="0.43" stroke-linecap="butt" stroke-linejoin="miter"/><path d="M253.41479,215.13233h-0.90521" fill="none" stroke="#ffffff" stroke-width="0.43" stroke-linecap="butt" stroke-linejoin="miter"/><path d="M250.28967,214.72283l1.44402,0.4095" fill="none" stroke="#ffffff" stroke-width="0.43" stroke-linecap="butt" stroke-linejoin="miter"/><path d="M248.4577,214.2379l1.29315,0.32329" fill="none" stroke="#ffffff" stroke-width="0.43" stroke-linecap="butt" stroke-linejoin="miter"/><path d="M248.4577,214.2379l-1.70265,-0.80822" fill="none" stroke="#ffffff" stroke-width="0.43" stroke-linecap="butt" stroke-linejoin="miter"/><path d="M231.78678,180.79907c0.36537,0.38304 0.36537,0.98555 0,1.36859c-0.38078,0.37095 -0.98781,0.37095 -1.36859,0c-0.60243,-0.62587 -1.25081,-1.20581 -1.93973,-1.73498l0.19397,0.15087c-0.36639,-0.26941 -0.72201,-0.51726 -1.07763,-0.76512c-0.4507,-0.27867 -0.60259,-0.8625 -0.34484,-1.32548c0.27508,-0.45556 0.86328,-0.60858 1.32548,-0.34484c1.17298,0.76053 2.25733,1.64969 3.23289,2.65097z" fill="#363636" stroke="none" stroke-width="1" stroke-linecap="butt" stroke-linejoin="miter"/><path d="M230.06257,182.35086c0.53084,0.01142 0.95844,0.43903 0.96987,0.96987c-0.01679,0.52853 -0.44133,0.95308 -0.96987,0.96987c-1.28463,0.06729 -2.57186,-0.06725 -3.81481,-0.39872c-0.39734,-0.02883 -0.73665,-0.29771 -0.85551,-0.67796c-0.11886,-0.38024 0.0069,-0.7945 0.31708,-1.0445c0.31018,-0.25 0.7417,-0.28488 1.08802,-0.08796c0.28018,0.07543 0.57114,0.19397 0.8621,0.19397c0.15126,0.04194 0.30664,0.06723 0.46338,0.07543h-0.12932h0.14009h0.20475c0.58472,0.04317 1.17181,0.04317 1.75654,0z" fill="#363636" stroke="none" stroke-width="1" stroke-linecap="butt" stroke-linejoin="miter"/><path d="M229.48065,184.71086c0.22244,-0.13676 0.49144,-0.17575 0.74356,-0.10776c0.24115,0.07776 0.44718,0.23802 0.58192,0.4526c0.13311,0.22401 0.16819,0.49291 0.09699,0.74356c-0.07501,0.2395 -0.23128,0.44532 -0.44183,0.58192c-0.60925,0.42875 -1.26325,0.79007 -1.95051,1.07763c-0.14827,0.08443 -0.31447,0.13244 -0.48493,0.14009h-0.25863c-0.24824,-0.06553 -0.45985,-0.22786 -0.58745,-0.45066c-0.1276,-0.2228 -0.16055,-0.48745 -0.09146,-0.73473c0.06621,-0.24708 0.22943,-0.45693 0.4526,-0.58192c0.67863,-0.29822 1.32801,-0.65899 1.93973,-1.07763z" fill="#363636" stroke="none" stroke-width="1" stroke-linecap="butt" stroke-linejoin="miter"/></g></g></svg>